<svg width="32" height="32" viewBox="0 0 32 32" fill="none" xmlns="http://www.w3.org/2000/svg">
<path d="M11.6406 9.24214L15.0944 12.6959L20.668 7.12231" stroke="#A498D9" stroke-miterlimit="10" stroke-linecap="round"/>
<path d="M17.708 18.718C21.8472 17.9214 24.9743 14.2807 24.9743 9.90904C24.9743 4.9542 20.9576 0.9375 16.0028 0.9375C11.048 0.9375 7.03125 4.9542 7.03125 9.90904C7.03125 14.2809 10.1585 17.9216 14.2979 18.7181" stroke="#A498D9" stroke-miterlimit="10"/>
<path d="M17.7013 20.2083V15.4082C17.7013 14.4665 16.938 13.7031 15.9963 13.7031C15.0546 13.7031 14.2912 14.4665 14.2912 15.4082V23.3427H14.0412L13.8301 23.0912C12.911 21.9958 11.2779 21.8529 10.1826 22.772C9.83583 23.063 9.79059 23.58 10.0816 23.9268L14.0573 28.6649C14.2084 28.845 14.2912 29.0726 14.2912 29.3077V31.0625H21.5378V29.3017C21.5378 29.0766 21.6138 28.8581 21.7534 28.6815L22.7388 27.4351C22.8784 27.2586 22.9544 27.04 22.9544 26.8149V22.1419C22.9544 21.6703 22.6249 21.2628 22.1638 21.164L17.7013 20.2083Z" stroke="#A498D9" stroke-miterlimit="10"/>
<path d="M4.55545 9.90906H2.23438" stroke="#A498D9" stroke-miterlimit="10" stroke-linecap="round"/>
<path d="M6.08826 4.18913L4.07812 3.02856" stroke="#A498D9" stroke-miterlimit="10" stroke-linecap="round"/>
<path d="M6.08826 15.629L4.07812 16.7895" stroke="#A498D9" stroke-miterlimit="10" stroke-linecap="round"/>
<path d="M27.4375 9.90906H29.7586" stroke="#A498D9" stroke-miterlimit="10" stroke-linecap="round"/>
<path d="M25.9062 4.18913L27.9164 3.02856" stroke="#A498D9" stroke-miterlimit="10" stroke-linecap="round"/>
<path d="M25.9062 15.629L27.9164 16.7895" stroke="#A498D9" stroke-miterlimit="10" stroke-linecap="round"/>
</svg>
