<svg width="240" height="240" viewBox="0 0 240 240" fill="none" xmlns="http://www.w3.org/2000/svg">
<rect width="240" height="240" rx="120" fill="#F0F3FF"/>
<path fill-rule="evenodd" clip-rule="evenodd" d="M123.195 43.1432C115.461 43.9866 108.782 49.9884 106.586 58.0687C105.549 61.8833 103.625 66.0109 101.517 68.9431C97.7278 74.2134 97.2401 77.709 99.6991 81.9706C100.534 83.418 100.534 83.418 100.487 86.3935C100.424 90.3496 100.699 91.4108 102.296 93.3657C103.009 94.2384 103.009 94.2384 102.014 94.7552C98.026 96.8249 95.1247 99.7395 93.6449 103.162C92.648 105.467 88.5189 117.68 88.5189 118.323C88.5189 118.365 85.2131 118.399 81.1725 118.399C73.194 118.399 73.2861 118.39 72.5661 119.302C72.1118 119.878 72.1279 120.877 72.6253 122.945C72.843 123.851 73.318 125.93 73.6807 127.567C74.0434 129.203 74.9503 133.008 75.6958 136.021C76.4412 139.035 77.3484 142.798 77.7118 144.384C78.075 145.971 78.3992 147.349 78.4321 147.447C78.465 147.545 77.9628 147.421 77.316 147.171C66.2332 142.879 57.0526 147.357 57.0002 157.08C56.9556 165.373 63.4285 171.305 81.2612 179.313C81.6124 179.471 81.6228 179.496 81.3418 179.508C77.7207 179.669 73.7573 184.084 74.0434 187.639C74.4275 192.408 79.3379 194.07 89.3253 192.812C91.1437 192.583 93.3936 192.316 94.325 192.219C98.2999 191.804 102.083 191.167 105.51 190.337C107.244 189.917 107.267 189.915 108.01 190.202C111.363 191.495 111.527 191.53 112.015 191.065C112.469 190.632 112.469 190.632 114.082 191.115C118.278 192.372 129.243 194.767 135.291 195.748C137.627 196.126 140.561 196.732 142.468 197.228C156.001 200.751 166.221 191.539 157.955 183.267L156.802 182.113L158.425 181.603C168.336 178.489 176.729 173.022 180.559 167.185C185.723 159.314 182.321 149.097 173.857 147.054C172.26 146.669 172.153 146.59 172.393 145.968C173.341 143.51 172.245 136.298 168.913 123.063C165.546 109.693 163.09 102.634 160.704 99.4692C158.685 96.7912 154.926 94.1255 151.067 92.6338L149.344 91.9678L150.422 90.8894C155.885 85.4244 155.826 77.1723 150.279 70.5514C146.523 66.0685 146.147 65.3322 145.054 60.3332C143.449 52.9836 142.436 50.6822 139.666 48.0837C137.309 45.8724 134.925 45.0198 132.791 45.6252C132.569 45.6881 132.052 45.4413 131.137 44.8363C129.474 43.7368 128.415 43.3373 126.62 43.1323C125.06 42.9539 124.926 42.9544 123.195 43.1432ZM130.058 55.8738C130.841 58.2557 132.465 60.8122 134.75 63.2579C136.648 65.2896 136.705 65.3271 137.161 64.8254C137.933 63.974 138.989 63.8228 140.134 64.3995C143.559 66.125 141.541 72.6649 137.341 73.4506C136.754 73.5604 136.754 73.5604 136.101 75.6244C133.194 84.8186 125.197 89.7312 119.096 86.07C113.9 82.9516 111.987 77.6614 111.474 64.9977L111.373 62.4996L114.018 61.8021C121.16 59.9181 126.222 57.1932 128.809 53.8396L129.565 52.8598L129.673 53.9438C129.732 54.5401 129.905 55.4086 130.058 55.8738ZM113.568 63.8932C112.107 64.3149 112.89 65.5204 114.535 65.3817C115.374 65.311 116.085 65.3641 117.034 65.5685C118.464 65.8766 119.001 65.7221 119.001 65.0027C119.001 64.1253 115.349 63.3795 113.568 63.8932ZM126.582 63.9252C124.957 64.3946 124.513 64.8615 125.026 65.5612C125.254 65.8712 125.272 65.8715 126.202 65.5789C127.493 65.1725 128.929 65.082 130.38 65.3153C131.771 65.539 132.065 65.4257 132.065 64.667C132.065 63.8455 128.519 63.3657 126.582 63.9252ZM113.787 68.6483C112.629 69.8026 116.311 71.3478 117.551 70.2283C118.237 69.6096 117.777 68.734 117.037 69.2504C116.37 69.7167 115.068 69.4825 114.494 68.7929C114.275 68.5289 113.969 68.4664 113.787 68.6483ZM119.875 69.2708C119.074 71.1827 118.959 77.0553 119.708 77.8021C120.613 78.7047 123.342 78.5442 123.353 77.5878C123.359 77.0957 122.721 76.7435 121.824 76.7435C121.012 76.7435 120.936 76.7126 120.934 76.3816C120.932 76.1825 121.019 74.5592 121.126 72.7743C121.344 69.1555 121.277 68.7018 120.529 68.7018C120.206 68.7018 120.061 68.8284 119.875 69.2708ZM126.541 69.3583C125.343 70.0531 127.786 71.4365 129.236 70.8843C130.798 70.2894 131.014 69.027 129.511 69.2773C128.712 69.4103 128.094 69.4101 127.307 69.2766C127.041 69.2314 126.696 69.2683 126.541 69.3583ZM124.646 80.1745C124.01 80.4798 123.679 80.5186 121.958 80.4906C118.652 80.4365 119.048 82.0278 122.416 82.3323C124.492 82.5201 127.507 80.525 126.007 79.9561C125.49 79.7604 125.519 79.7557 124.646 80.1745ZM135.039 86.5446C135.76 89.2476 137.681 91.0944 140.492 91.7873C142.44 92.2674 134.955 97.5963 130.578 98.8455C124.53 100.572 117.582 98.6095 114.638 94.3428C113.52 92.7224 113.692 92.6158 119.279 91.4502C119.834 91.3343 119.989 90.8862 119.806 89.9234C119.501 88.3217 119.513 88.3008 120.493 88.6951C124.274 90.2171 129.982 88.1136 133.522 83.8936L134.565 82.6494L134.664 84.0791C134.718 84.8655 134.887 85.975 135.039 86.5446ZM145.845 93.0685C157.448 96.2935 160.614 100.114 165.039 116.228C169.33 131.849 171.082 141.156 170.544 145.455C170.433 146.341 170.433 146.341 168.466 146.425C165.124 146.567 160.936 147.682 156.344 149.654C155.195 150.148 154.235 150.533 154.212 150.509C154.189 150.486 154.057 149.929 153.919 149.27C153.461 147.076 152.134 145.151 150.613 144.47C149.887 144.146 149.887 144.146 150.424 143.958C151.476 143.591 153.913 142.334 156.184 140.989C158.887 139.389 159.476 139.154 161.096 139.034C162.414 138.936 162.87 138.689 162.87 138.076C162.87 136.227 159.363 136.689 155.473 139.05C153.667 140.146 153.899 140.324 153.43 137.477C152.037 129.007 151.456 120.373 151.904 114.78C152.317 109.627 152.318 109.792 151.853 109.328C149.084 106.567 148.854 122.497 151.44 137.998C151.71 139.622 151.871 141.01 151.796 141.081C151.619 141.252 149.054 142.306 147.671 142.777C146.584 143.147 146.584 143.147 144.526 142.583C138.041 140.804 135.524 140.678 132.329 141.972C131.799 142.187 131.347 142.363 131.327 142.363C131.306 142.363 131.024 141.26 130.701 139.911C130.377 138.562 129.937 136.734 129.724 135.85C129.51 134.965 128.673 131.384 127.864 127.892C125.579 118.023 127.368 119.107 113.114 118.959C107.349 118.9 102.577 118.817 102.51 118.776C102.444 118.735 102.389 116.549 102.389 113.919C102.389 108.714 102.395 108.749 101.474 108.749C100.437 108.749 100.38 109.015 100.319 114.196L100.266 118.772L95.4935 118.665C92.8688 118.606 90.6923 118.529 90.6568 118.494C90.4527 118.29 93.5559 109.01 95.2866 104.648C97.3299 99.4989 101.806 96.2665 109.883 94.1073C112.087 93.518 111.916 93.4976 112.344 94.4015C113.96 97.819 118.765 100.767 123.92 101.505C130.161 102.397 138.017 98.9096 142.564 93.2282C143.002 92.6799 143.362 92.3734 143.514 92.4175C143.648 92.4564 144.697 92.7494 145.845 93.0685ZM102.769 135.186C103.997 135.698 104.995 137.562 104.655 138.71C103.551 142.437 98.1874 140.982 98.9082 137.151C99.2024 135.587 101.241 134.55 102.769 135.186ZM138.608 143.18C139.812 143.397 146.202 145.082 148.366 145.752C150.672 146.467 151.715 147.559 152.31 149.885C152.659 151.247 152.605 151.336 150.894 152.228C149.149 153.138 149.404 153.146 145.048 152.042C140.805 150.966 140.103 151.032 136.57 152.834C132.943 154.684 133.501 153.155 137.427 150.486C139.592 149.013 140.19 148.31 139.696 147.818C139.335 147.457 135.588 149.52 134.072 150.913C133.209 151.706 132.387 151.348 132.622 150.281C132.764 149.634 134.834 147.443 136.076 146.625C137.164 145.909 137.305 145.706 137.049 145.228C136.788 144.741 136.088 144.919 134.44 145.889C132.513 147.025 132.635 147.013 132.071 146.126C131.259 144.85 131.43 144.439 133.033 143.81C135.073 143.01 136.669 142.829 138.608 143.18ZM79.3561 150.338C80.403 154.279 80.7763 155.247 81.3378 155.476C82.0468 155.767 83.808 156.004 86.019 156.108C87.0835 156.158 89.2971 156.272 90.9381 156.361C93.7881 156.516 105.069 157.055 109.324 157.24C110.433 157.288 113.409 157.432 115.937 157.56C118.465 157.688 121.586 157.831 122.872 157.877C124.158 157.923 126.455 158.043 127.976 158.143C132.178 158.419 134.628 158.295 135.936 157.738C136.513 157.492 138.254 156.837 139.807 156.28C141.359 155.724 143.669 154.826 144.939 154.285C147.405 153.233 147.64 153.177 148.114 153.523C148.456 153.772 147.186 154.731 146.195 154.973C145.939 155.035 144.342 155.634 142.647 156.303C134.415 159.551 134.551 159.524 128.137 159.191C125.374 159.047 121.372 158.858 119.243 158.77C117.114 158.682 114.756 158.572 114.002 158.525C112.032 158.404 102.751 157.997 97.4701 157.8C84.9076 157.332 81.1015 156.849 80.1938 155.607C79.0756 154.077 77.6238 148.794 78.1715 148.248C78.6147 147.806 78.744 148.034 79.3561 150.338ZM94.1371 159.733C95.6248 160.499 97.1683 161.469 99.5909 163.157C100.199 163.58 102.692 165.233 105.131 166.83C107.57 168.427 110.074 170.076 110.695 170.496C113.993 172.723 115.088 173.487 115.453 173.812C115.675 174.01 116.091 174.29 116.379 174.435C117.09 174.792 117.495 175.414 117.228 175.735C116.886 176.146 116.282 175.839 113.9 174.048C112.647 173.105 110.744 171.761 109.671 171.06C100.184 164.862 92.7111 159.855 92.3192 159.436C91.5847 158.65 92.2468 158.758 94.1371 159.733ZM139.377 160.339C139.196 160.581 137.959 161.466 136.627 162.307C135.295 163.147 133.633 164.238 132.933 164.731C132.234 165.224 130.864 166.12 129.888 166.722C126.932 168.546 119.646 173.425 119.646 173.58C119.646 173.817 118.896 173.746 118.683 173.49C118.324 173.059 119.899 171.933 128.146 166.73C129.547 165.845 131.493 164.582 132.468 163.923C138.45 159.882 140.518 158.809 139.377 160.339ZM123.033 180.131C125.207 181.007 127.42 181.986 127.952 182.308C129.109 183.007 129.514 183.038 129.936 182.46C130.253 182.026 130.253 182.026 131.764 182.244C132.697 182.378 134.879 182.467 137.468 182.476C149.496 182.519 158.78 189.202 153.999 194.375C152.115 196.413 148.635 196.581 142.042 194.952C140.591 194.593 137.623 194.017 135.447 193.672C127.419 192.397 113.649 189.211 113.403 188.572C113.209 188.069 118.548 178.289 118.921 178.463C119.009 178.505 120.86 179.255 123.033 180.131ZM90.0727 183.192C92.8106 184.329 96.9948 186.01 99.3708 186.929C103.083 188.363 103.628 188.616 103.242 188.721C102.248 188.994 98.4715 189.635 96.4217 189.878C85.0582 191.229 81.8232 191.416 79.6348 190.851C73.6383 189.302 75.5859 182.899 82.4956 181.447C84.7855 180.965 84.6212 180.928 90.0727 183.192ZM151.595 181.666C156.385 183.352 159.501 187.994 158.266 191.607C157.959 192.505 156.949 193.593 157.173 192.785C158.153 189.236 155.642 185.926 149.607 182.813C146.994 181.465 146.994 181.465 147.876 181.405C150.006 181.259 150.547 181.297 151.595 181.666Z" fill="#7190F9"/>
</svg>
