<svg width="240" height="240" viewBox="0 0 240 240" fill="none" xmlns="http://www.w3.org/2000/svg">
<rect width="240" height="240" rx="120" fill="#F0F3FF"/>
<path fill-rule="evenodd" clip-rule="evenodd" d="M82.6585 29.1387C82.4965 29.1731 81.436 29.347 80.3018 29.5252C73.2243 30.6376 65.3052 35.6094 61.5027 41.3283C60.9673 42.1334 59.9319 43.6706 59.2021 44.7442C58.4721 45.8177 56.8343 48.8042 55.5624 51.3808C52.6158 57.3498 51.9331 58.2677 46.4159 63.6781C37.934 71.9959 36.2206 79.0959 41.2107 85.2471C41.6067 85.7351 41.6067 85.7351 41.1008 87.1014C39.6901 90.9122 41.51 95.4304 45.1032 97.0373C46.1443 97.5028 46.1374 97.5391 44.8994 98.1175C36.7764 101.911 29.9016 111.812 28.3542 121.944C28.2042 122.926 27.6861 125.589 27.1008 128.385C26.4506 131.492 25.4223 138.826 24.6783 145.66C24.326 148.899 24.2502 150.811 24.2335 156.884C24.2137 164.203 24.2137 164.203 23.0071 166.299C19.4832 172.42 17.9608 177.765 17.9602 184.016C17.9596 189.712 19.0621 192.599 23.0351 197.304C24.3912 198.91 24.3912 198.91 23.6243 198.791C21.9725 198.536 0.867093 198.391 0.413626 198.632C-0.152374 198.933 -0.138036 199.339 0.459975 199.933C1.15422 200.623 23.1905 200.699 24.5373 200.016C25.4576 199.55 25.4596 199.55 27.7672 201.208C30.5434 203.202 34.0892 204.53 38.989 205.408C39.3285 205.469 39.4729 205.742 39.74 206.825C40.3392 209.255 41.7573 210.308 45.1494 210.84C48.7201 211.401 50.6263 210.675 58.9076 205.604C61.115 204.253 63.0096 203.117 63.1176 203.08C63.5819 202.922 62.7362 202.364 62.0323 202.364C60.1914 202.364 56.4688 201.359 50.254 199.185C48.5797 198.599 45.4092 197.489 43.2084 196.718C38.9275 195.218 35.2216 193.519 35.4453 193.16C35.7253 192.709 37.7042 193.215 41.7109 194.761C61.2383 202.298 74.8429 205.776 90.1214 207.138C97.5632 207.802 99.2573 207.901 103.28 207.914C108.095 207.929 109.044 207.816 110.092 207.107C110.932 206.537 110.568 206.508 117.518 207.715C134.023 210.583 140.882 211.154 145.111 210.015C157.373 206.71 155.775 195.911 142.737 193.972C139.892 193.549 138.039 193.204 137.78 193.049C137.69 192.996 138.421 192.545 139.404 192.046C158.422 182.404 150.863 159.252 130.117 163.603C127.12 164.231 127.402 164.415 127.215 161.713C127.025 158.969 126.8 157.417 126.069 153.796C118.993 118.748 114.623 106.417 108.208 103.39L107.222 102.925L108.207 102.459C110.254 101.493 112.706 98.5346 112.706 97.0331C112.706 96.6715 112.982 96.4464 114.13 95.8743C121.984 91.9565 124.215 82.5801 119.263 74.3084C116.463 69.6335 116.462 69.6278 116.591 65.0444C116.908 53.8039 116.747 51.7675 115.156 46.8874C112.398 38.4325 104.798 32.3309 97.6316 32.8191C95.6013 32.9575 95.585 32.9524 93.4282 31.5105C90.8671 29.7987 85.3137 28.5756 82.6585 29.1387ZM101.48 45.8177C103.616 49.0589 107.042 51.9884 110.202 53.2771C111.236 53.6985 111.724 54.0011 111.724 54.2205C111.724 54.3981 111.457 56.6427 111.131 59.2085C110.804 61.7741 110.448 64.9712 110.338 66.3132C109.586 75.5414 108.294 80.8745 105.978 84.3162C97.9328 96.2701 85.734 97.3053 75.2769 86.9215C72.228 83.8936 68.3718 77.5875 68.0672 75.1305C67.915 73.9035 67.5474 73.6912 65.7958 73.819C61.0247 74.1672 57.5472 66.3858 60.1727 61.2364C61.3406 58.9454 65.1222 58.6969 66.0843 60.8477C67.3058 63.5783 67.4366 63.6687 69.3607 63.1128C70.9988 62.6396 73.1903 60.2832 74.674 57.3998C74.9676 56.8293 75.1375 56.7494 76.9103 56.3493C87.4457 53.9714 96.0522 47.9446 98.1646 41.4657C98.4063 40.7247 98.4063 40.7247 99.3963 42.4416C99.9409 43.386 100.878 44.9052 101.48 45.8177ZM88.3539 55.8869C82.6198 57.2351 80.7953 58.2378 82.0397 59.357C82.3816 59.6647 82.5163 59.6387 84.3473 58.9145C85.4168 58.4913 87.5732 57.87 89.1394 57.5337C92.3948 56.8347 93.3333 56.4598 93.4245 55.8219C93.571 54.7975 92.9535 54.8053 88.3539 55.8869ZM100.743 56.2433C99.7524 57.2913 100.597 57.9272 104.779 59.2823C108.598 60.52 109.368 60.5345 109.368 59.3686C109.368 58.7525 109.103 58.6139 106.815 58.0317C103.637 57.223 102.995 56.9794 102.391 56.353C101.713 55.6497 101.328 55.6239 100.743 56.2433ZM85.1625 62.4249C84.1957 62.9847 83.829 65.6852 84.5833 66.6925C85.427 67.8189 86.7613 67.6595 87.3047 66.3673C88.1871 64.2681 86.7014 61.534 85.1625 62.4249ZM63.7203 63.949C63.652 64.0589 63.7396 64.4821 63.9149 64.8894C64.0905 65.2968 64.3607 66.0434 64.5155 66.5488C64.8454 67.6249 65.0224 67.777 65.5923 67.4738C66.3095 67.0922 65.4865 63.9709 64.6687 63.9709C64.5353 63.9709 64.2953 63.9209 64.1355 63.86C63.9756 63.7989 63.7887 63.8391 63.7203 63.949ZM95.9338 64.2258C95.3138 64.6765 95.9779 69.279 97.2095 73.0646C98.467 76.9302 97.9071 78.046 95.016 77.4362C93.7538 77.1699 93.3648 77.297 93.4907 77.9347C93.7837 79.4174 97.6375 79.5216 98.9953 78.0834C99.7357 77.2993 99.61 75.411 98.6119 72.3182C97.6302 69.2761 97.3798 68.1115 97.2186 65.835C97.0834 63.9287 96.8114 63.5881 95.9338 64.2258ZM102.563 64.4526C101.53 65.1717 101.582 68.0258 102.643 68.8556C103.573 69.5827 104.825 68.7209 104.993 67.2376C105.226 65.1818 103.824 63.5746 102.563 64.4526ZM70.0991 82.6608C73.8502 89.2779 80.0734 94.5347 86.8644 96.8221C86.9634 96.8555 86.8014 97.8885 86.5046 99.1176C85.8008 102.033 85.8504 102.717 86.7654 102.717C87.4304 102.717 87.4377 102.707 87.6877 101.489C88.3625 98.2012 89.2213 97.3496 91.381 97.8272C94.2772 98.4676 94.7103 99.184 93.463 101.271C88.9978 108.741 78.5714 110.653 68.7937 105.795C63.3366 103.084 56.107 95.86 58.1515 95.1612C63.4723 93.3428 68.7006 87.4731 68.7159 83.3006C68.7224 81.5271 69.3039 81.2581 70.0991 82.6608ZM90.7105 83.3137C87.2596 83.6967 86.8185 85.2028 90.2317 84.9484C91.7832 84.8327 92.3754 84.8801 93.9453 85.2457C95.8735 85.6947 96.3281 85.6755 96.5363 85.1364C96.9831 83.9791 93.7709 82.974 90.7105 83.3137ZM57.0295 98.077C62.9978 105.207 68.3579 108.506 76.1776 109.861C84.3663 111.28 92.5468 107.691 95.8212 101.244C96.6885 99.5367 96.7476 99.5162 98.6271 100.266C106.343 103.343 111.402 107.543 113.558 112.66C115.602 117.515 119.69 132.2 121.847 142.439C122.243 144.318 122.995 147.831 123.519 150.247C126.156 162.404 125.895 165.914 122.078 169.648C119.293 172.373 116.697 173.409 111.951 173.689C106.641 174.003 93.5889 173.704 90.8445 173.206C90.5399 173.151 89.6783 173.046 88.9297 172.973C87.4025 172.823 87.432 172.848 87.9391 172.139C90.2575 168.9 88.3317 162.689 84.3494 160.562C83.1495 159.921 83.1495 159.921 86.1089 159.593C91.8003 158.96 100.187 157.466 108.386 155.624C109.628 155.344 111.44 155.063 112.412 154.997C114.32 154.869 114.67 154.725 114.67 154.068C114.67 152.98 113.433 152.915 108.779 153.76C104.503 154.537 104.823 154.58 104.112 153.126C101.416 147.609 101.484 148.102 102.903 144.376C105.489 137.584 106.213 133.536 106.234 125.748C106.245 121.297 106.153 120.773 105.359 120.773C104.569 120.773 104.51 121.098 104.395 126.043C104.169 135.828 103.032 140.155 97.8625 150.904C96.4238 153.896 95.2203 156.37 95.1879 156.401C94.8876 156.694 90.6797 157.288 83.5423 158.045C81.49 158.262 79.0056 158.578 78.0213 158.746C75.9796 159.094 75.7605 159.054 68.7621 157.058C60.9155 154.82 57.5489 154.767 53.2352 156.814C51.7976 157.497 51.7976 157.497 50.8679 156.653C50.3565 156.19 49.7985 155.722 49.6283 155.615C49.1997 155.345 49.4228 152.055 50.4576 143.38C52.0716 129.848 52.2992 125.532 51.6507 120.749C51.2326 117.664 51.2263 117.649 50.3522 117.649C49.4594 117.649 49.4609 117.642 49.8103 120.091C50.5122 125.008 50.067 134.598 48.6821 144.391C48.0679 148.734 47.7333 151.424 47.5933 153.142C47.4621 154.751 47.4558 154.767 46.9736 154.646C44.7073 154.081 39.302 154.147 38.7562 154.746C37.9398 155.643 38.3369 155.801 41.7131 155.926C45.4278 156.063 46.9112 156.255 47.0512 156.618C47.1076 156.764 47.3002 156.884 47.4795 156.884C48.0638 156.884 49.1734 157.6 49.1811 157.982C49.1852 158.183 49.251 158.449 49.3274 158.572C49.4113 158.707 48.7539 159.441 47.6687 160.426C42.5941 165.028 40.9362 169.218 43.6252 170.645C44.1931 170.946 44.3613 171.154 44.3616 171.556C44.3628 172.737 45.2197 173.341 47.1653 173.532C48.0018 173.614 48.4631 173.78 48.9254 174.167C49.5218 174.666 49.6322 174.687 51.2287 174.601C53.0129 174.505 53.5221 174.63 54.4719 175.395C54.9972 175.819 55.1857 175.856 56.3376 175.757C57.5314 175.655 58.4557 175.412 64.6887 173.566C68.4125 172.463 69.246 172.461 72.5023 173.548C75.6658 174.604 76.6527 174.672 79.5143 174.035C83.8207 173.076 103.023 181.057 104.676 184.493C104.886 184.928 105.801 186.163 106.71 187.236C110.541 191.759 112.078 195.421 111.533 198.729C111.195 200.78 110.36 201.399 110.353 199.603C110.339 196.465 105.832 189.011 101.71 185.309C100.265 184.012 99.1452 184.751 100.547 186.078C105.329 190.602 109.958 199.713 108.702 202.127C108.104 203.276 106.845 203.237 106.819 202.068C106.817 201.959 106.645 201.555 106.438 201.171C106.23 200.786 105.818 199.69 105.521 198.734C103.914 193.563 98.8246 186.354 97.399 187.23C96.9848 187.484 97.2254 187.903 99.1507 190.282C102.342 194.225 104.262 198.388 104.262 201.369C104.262 204.621 102.553 203.67 101.141 199.631C100.055 196.522 97.9593 192.501 96.5624 190.845C95.8823 190.039 95.1321 189.133 94.8952 188.833C94.4769 188.301 94.4506 188.295 93.9624 188.613C93.3214 189.031 93.328 189.092 94.1183 190.032C96.2344 192.549 99.4527 198.898 99.3127 200.279C99.1605 201.777 97.6488 201.296 96.5752 199.408C93.3072 193.661 90.4776 190.871 84.7206 187.719C84.0138 187.332 82.8614 186.383 81.8407 185.349C80.2918 183.78 79.6551 183.254 80.0263 183.851C80.2148 184.154 79.9994 184.085 76.2758 182.643C65.6691 178.535 61.4997 177.402 48.2901 175.039C38.8955 173.358 36.92 172.824 33.2667 170.973C29.5176 169.074 27.0596 166.147 26.7055 163.161C26.6291 162.518 26.4732 161.875 26.3587 161.731C25.1467 160.212 26.3901 142.682 28.5579 130.727C28.8206 129.278 29.2664 126.819 29.5483 125.262C32.4313 109.345 38.496 101.668 51.6118 97.332C55.8221 95.9401 55.1651 95.8497 57.0295 98.077ZM174.799 133.456C173.017 133.883 172.954 134.053 170.451 145.149C169.37 149.939 167.947 156.23 167.289 159.128C166.63 162.027 165.408 167.45 164.572 171.18C162.611 179.938 163.247 179.082 157.771 180.335C152.372 181.571 151.19 181.938 150.601 182.561C150.046 183.148 150.485 183.762 151.297 183.534C162.042 180.521 162.886 180.436 174.471 181.179C178.576 181.442 183.525 181.749 185.469 181.861C187.414 181.973 189.711 182.109 190.575 182.165C193.755 182.368 195.319 182.471 196.565 182.556C197.267 182.605 201.421 182.865 205.796 183.135C210.17 183.406 215.694 183.756 218.07 183.915C220.447 184.073 223.363 184.256 224.551 184.322C227.956 184.509 228.287 184.546 228.217 184.725C228.06 185.13 225.404 186.272 221.212 187.737C214.158 190.203 211.077 191.31 207.367 192.714C199.755 195.595 202.119 195.364 190.575 194.36C188.091 194.144 180.27 193.488 173.195 192.903C166.12 192.318 158.785 191.687 156.894 191.501C150.918 190.913 144.343 191.042 144.923 191.736C145.486 192.41 149.956 193.971 151.325 193.971C151.823 193.971 153.7 194.101 155.495 194.26C157.291 194.42 159.821 194.641 161.117 194.751C165.563 195.13 176.632 196.11 177.614 196.212C178.154 196.267 180.098 196.443 181.934 196.601C185.856 196.94 191.418 197.445 192.547 197.564C200.335 198.39 200.314 198.393 210.018 195.039C212.719 194.106 218.154 192.262 222.096 190.941C227.525 189.122 229.42 188.405 229.904 187.986C230.69 187.304 230.644 187.493 232.689 176.403C234.219 168.107 237.859 148.67 239.306 141.067C240.684 133.828 242.501 134.417 217.677 134.048C197.98 133.755 181.845 133.482 178.399 133.384C176.779 133.337 175.159 133.37 174.799 133.456ZM205.009 142.842C214.278 145.395 219.096 156.426 214.729 165.095C208.347 177.764 191.407 177.112 186.444 164.008C182.035 152.365 193.232 139.599 205.009 142.842ZM101.831 152.282C102.989 154.622 103.05 154.854 102.543 155.013C101.918 155.208 97.4874 156.072 97.4254 156.01C97.3918 155.977 98.0899 154.513 98.9767 152.757C99.8673 150.993 100.631 149.695 100.683 149.857C100.734 150.018 101.251 151.109 101.831 152.282ZM194.027 150.371C193.392 151.173 193.46 151.31 196.272 154.898C199.455 158.96 199.552 157.996 195.609 161.517C192.057 164.688 191.8 165.048 192.543 165.786C193.574 166.811 194.498 166.241 199.469 161.518C200.148 160.873 200.725 160.379 200.751 160.42C200.778 160.461 201.201 160.978 201.691 161.568C202.181 162.159 203.32 163.608 204.222 164.789C206.408 167.652 206.741 167.847 207.809 166.891C208.582 166.198 208.266 165.606 204.826 161.313L202.666 158.619L204.182 157.319C209.617 152.661 209.833 152.37 208.754 151.177C208.018 150.363 208.114 150.306 204.116 153.918C202.416 155.454 200.963 156.639 200.887 156.553C200.811 156.466 199.678 155.063 198.368 153.434C195.306 149.625 194.864 149.313 194.027 150.371ZM67.1436 158.443C75.1322 160.591 80.7616 161.759 81.7001 161.463C82.359 161.255 84.101 162.256 85.2762 163.518C87.7276 166.15 87.9709 169.603 85.8746 172.011C85.5942 172.333 85.4186 172.496 85.4844 172.372C85.5517 172.245 85.2994 171.968 84.9052 171.737C84.5211 171.512 84.2613 171.24 84.3278 171.133C84.4883 170.875 84.6332 170.846 81.9279 171.605C77.1984 172.933 76.2132 172.954 72.4462 171.808C68.3711 170.569 65.9213 170.795 60.1623 172.943C57.1035 174.084 55.7529 174.229 55.7529 173.416C55.7529 172.632 56.9142 171.803 61.1537 169.561C65.8659 167.069 65.869 167.067 65.6864 166.343C65.4053 165.231 60.2085 167.655 54.7678 171.436C51.6715 173.588 49.4519 173.455 50.96 171.209C52.3605 169.122 55.4377 166.99 59.4885 165.298C63.2749 163.717 64.007 163.049 62.9289 162.16C61.8892 161.303 54.1079 165.581 50.6075 168.934C46.3721 172.992 44.2034 172.566 47.6486 168.353C50.0652 165.398 53.0182 163.283 56.8513 161.763C60.4168 160.349 60.6256 160.216 60.5105 159.437C60.3883 158.61 59.8771 158.64 56.9933 159.642C52.7747 161.108 51.5097 161.919 47.9813 165.424C44.8444 168.54 43.9378 169.09 44.3614 167.622C45.189 164.754 49.9484 160.179 53.5516 158.789C59.2567 156.587 60.1582 156.564 67.1436 158.443ZM162.982 182.661C162.604 182.77 160.483 183.354 158.269 183.96C153.923 185.148 153.877 185.166 154.054 185.624C154.224 186.062 155.018 186.318 156.6 186.444C157.356 186.504 160.14 186.728 162.786 186.941C165.432 187.155 171.663 187.639 176.632 188.017C181.6 188.395 190.033 189.044 195.37 189.458C206.495 190.323 205.422 190.377 211.098 188.661C212.881 188.122 215.128 187.446 216.093 187.158C218.82 186.345 218.356 185.738 214.83 185.505C213.804 185.438 211.683 185.298 210.116 185.194C208.55 185.09 205.015 184.869 202.261 184.703C199.506 184.537 195.441 184.274 193.227 184.117C191.012 183.96 186.903 183.695 184.095 183.528C181.286 183.361 176.867 183.088 174.275 182.922C167.912 182.514 163.819 182.419 162.982 182.661ZM115.358 192.794C117.432 193.122 125.258 193.761 128.889 193.9C133.321 194.068 133.903 194.465 134.975 198.056C136.018 201.55 134.059 205.847 130.885 207.027C129.206 207.652 128.644 207.681 126.257 207.266C125.015 207.05 121.834 206.514 119.187 206.075C111.559 204.811 112.205 205.022 112.812 203.993C114.645 200.885 114.961 197.876 113.953 193.141C113.824 192.532 113.777 192.544 115.358 192.794Z" fill="#7190F9"/>
</svg>
