<svg width="17" height="16" viewBox="0 0 17 16" fill="none" xmlns="http://www.w3.org/2000/svg">
<g clip-path="url(#clip0_4118_15766)">
<path fill-rule="evenodd" clip-rule="evenodd" d="M8.46397 9.48765C7.97098 9.48765 7.57313 9.0898 7.57313 8.59681C7.57313 8.10382 7.97098 7.69732 8.46397 7.69732C8.95695 7.69732 9.36345 8.10382 9.36345 8.59681C9.36345 9.0898 8.95695 9.48765 8.46397 9.48765ZM4.41626 9.48765C3.92328 9.48765 3.51678 9.0898 3.51678 8.59681C3.51678 8.10382 3.92328 7.69732 4.41626 7.69732C4.90925 7.69732 5.3071 8.10382 5.3071 8.59681C5.3071 9.0898 4.90925 9.48765 4.41626 9.48765ZM9.96023 3.30371H3.18812C1.61402 3.30371 0.333984 4.58375 0.333984 6.15782V10.785C0.333984 12.3504 1.61402 13.6305 3.18812 13.6305H3.89733C4.22599 13.6305 4.53735 13.7602 4.77087 13.9937L5.72225 14.9451C5.94712 15.17 6.24983 15.2997 6.56986 15.2997C6.88987 15.2997 7.19258 15.17 7.4261 14.9451L8.37748 13.9937C8.60235 13.7602 8.91371 13.6305 9.24237 13.6305H9.96023C11.5257 13.6305 12.8057 12.3504 12.8057 10.785V6.15782C12.8057 4.58375 11.5257 3.30371 9.96023 3.30371Z" fill="#A498D9"/>
<path fill-rule="evenodd" clip-rule="evenodd" d="M8.46477 9.48759C7.97179 9.48759 7.57394 9.08974 7.57394 8.59675C7.57394 8.10376 7.97179 7.69727 8.46477 7.69727C8.95776 7.69727 9.36426 8.10376 9.36426 8.59675C9.36426 9.08974 8.95776 9.48759 8.46477 9.48759ZM4.41706 9.48759C3.92408 9.48759 3.51758 9.08974 3.51758 8.59675C3.51758 8.10376 3.92408 7.69727 4.41706 7.69727C4.91005 7.69727 5.3079 8.10376 5.3079 8.59675C5.3079 9.08974 4.91005 9.48759 4.41706 9.48759Z" fill="white"/>
<path fill-rule="evenodd" clip-rule="evenodd" d="M13.4879 0H6.71578C5.43296 0 4.34315 0.849071 3.9932 2.01489C3.96147 2.12059 4.04379 2.22277 4.15415 2.22277H9.95911C12.1213 2.22277 13.8857 3.98714 13.8857 6.15804V10.0938C13.8857 10.1987 13.9786 10.2798 14.0813 10.2582C15.3685 9.9876 16.3334 8.83998 16.3334 7.47267V2.84549C16.3334 1.28004 15.0533 0 13.4879 0Z" fill="#A498D9"/>
</g>
<defs>
<clipPath id="clip0_4118_15766">
<rect width="16" height="16" fill="white" transform="translate(0.333984)"/>
</clipPath>
</defs>
</svg>
