<svg width="64" height="64" viewBox="0 0 64 64" fill="none" xmlns="http://www.w3.org/2000/svg">
<path d="M32 0.5C49.397 0.5 63.5 14.603 63.5 32C63.5 49.397 49.397 63.5 32 63.5C14.603 63.5 0.5 49.397 0.5 32C0.5 14.603 14.603 0.5 32 0.5Z" fill="white"/>
<path d="M32 0.5C49.397 0.5 63.5 14.603 63.5 32C63.5 49.397 49.397 63.5 32 63.5C14.603 63.5 0.5 49.397 0.5 32C0.5 14.603 14.603 0.5 32 0.5Z" stroke="#A498D9"/>
<path d="M16.3896 27.7243L23.2734 34.608" stroke="#795BDA" stroke-width="2" stroke-miterlimit="10" stroke-linecap="round" stroke-linejoin="round"/>
<path d="M25.6577 30.5672L19.0673 23.9361C18.1896 23.0528 16.7664 23.0528 15.8886 23.9361C15.0107 24.8193 15.0107 26.2513 15.8886 27.1345L22.4788 33.7656L17.4779 28.7337C16.6001 27.8505 15.1769 27.8505 14.2991 28.7337C13.4214 29.617 13.4214 31.049 14.2991 31.9322L20.9839 38.6584C23.1633 40.8513 31.0043 46.0241 35.9889 45.5233M20.6568 25.5353L17.5744 22.4338C16.6965 21.5506 16.6965 20.1186 17.5744 19.2354C18.4522 18.3521 19.8754 18.3521 20.7531 19.2354L28.8365 27.3687L22.3426 20.8346C21.4647 19.9514 21.4647 18.5193 22.3426 17.6362C23.2204 16.7529 24.6435 16.7529 25.5213 17.6362L35.9889 28.1686L35.9889 23.096C35.9889 21.8471 36.9952 20.8346 38.2364 20.8346C39.4776 20.8346 40.4839 21.8471 40.4839 23.096L42.0234 35.6759" stroke="#795BDA" stroke-width="1.5" stroke-miterlimit="10" stroke-linecap="round" stroke-linejoin="round"/>
<path d="M21.1484 51.1998C16.5381 51.1998 12.8006 47.4624 12.8006 42.852" stroke="#A498D9" stroke-miterlimit="10" stroke-linecap="round" stroke-linejoin="round"/>
<path d="M21.1484 47.0259C18.8433 47.0259 16.9745 45.1571 16.9745 42.852" stroke="#A498D9" stroke-miterlimit="10" stroke-linecap="round" stroke-linejoin="round"/>
<path d="M42.8553 12.7998C47.4657 12.7998 51.2031 16.5372 51.2031 21.1476" stroke="#A498D9" stroke-miterlimit="10" stroke-linecap="round" stroke-linejoin="round"/>
<path d="M42.8495 16.9737C45.1547 16.9737 47.0234 18.8424 47.0234 21.1476" stroke="#A498D9" stroke-miterlimit="10" stroke-linecap="round" stroke-linejoin="round"/>
</svg>
