<svg width="64" height="64" viewBox="0 0 64 64" fill="none" xmlns="http://www.w3.org/2000/svg">
<path d="M32 0.5C14.603 0.5 0.5 14.603 0.5 32C0.5 49.397 14.603 63.5 32 63.5C49.397 63.5 63.5 49.397 63.5 32C63.5 14.603 49.397 0.5 32 0.5Z" fill="white"/>
<path d="M32 0.5C14.603 0.5 0.5 14.603 0.5 32C0.5 49.397 14.603 63.5 32 63.5C49.397 63.5 63.5 49.397 63.5 32C63.5 14.603 49.397 0.5 32 0.5Z" stroke="#A498D9"/>
<path d="M20.1927 16.5857C20.5678 16.2106 21.0765 15.9999 21.6069 15.9999H33.1968C33.7273 15.9999 34.236 16.2106 34.611 16.5857L50.8629 32.8376C52.8155 34.7902 52.8155 37.956 50.8629 39.9086L39.9072 50.8644C37.9545 52.817 34.7887 52.817 32.8361 50.8644L16.5842 34.6125C16.2091 34.2374 15.9984 33.7287 15.9984 33.1983V21.6084C15.9984 21.078 16.2091 20.5693 16.5842 20.1942L20.1927 16.5857Z" stroke="#795BDA" stroke-width="1.5" stroke-miterlimit="10" stroke-linecap="round" stroke-linejoin="round"/>
<path d="M30.2984 30.2883V29.8087C30.2984 27.5503 32.1291 25.7195 34.3874 25.7195C36.6458 25.7195 38.4766 27.5503 38.4766 29.8087V38.4664H29.8187C27.5604 38.4664 25.7297 36.6357 25.7297 34.3774C25.7297 32.119 27.5604 30.2883 29.8187 30.2883H30.2984Z" stroke="#A498D9" stroke-miterlimit="10" stroke-linecap="round" stroke-linejoin="round"/>
<path d="M24.8516 21.6551L21.6648 24.8418" stroke="#795BDA" stroke-width="1.5" stroke-miterlimit="10" stroke-linecap="round" stroke-linejoin="round"/>
<path d="M23.25 23.2485L16.0015 16" stroke="#795BDA" stroke-width="1.5" stroke-miterlimit="10" stroke-linecap="round" stroke-linejoin="round"/>
</svg>
