<svg width="19" height="20" viewBox="0 0 19 20" fill="none" xmlns="http://www.w3.org/2000/svg">
<path fill-rule="evenodd" clip-rule="evenodd" d="M17.0722 8.1841L3.5582 0.776056C2.8172 0.371056 1.9402 0.434056 1.2672 0.947056C0.592197 1.46106 0.294197 2.29406 0.489197 3.12106L1.87906 8.9987C1.92188 9.1798 2.08395 9.3075 2.27004 9.3067L11.0082 9.2691H11.0112C11.4242 9.2691 11.7592 9.6031 11.7612 10.0161C11.7632 10.4311 11.4282 10.7671 11.0142 10.7691L2.25919 10.8077C2.07441 10.8085 1.91423 10.9358 1.8717 11.1156L0.489197 16.9611C0.294197 17.7881 0.592197 18.6221 1.2672 19.1371C1.6472 19.4261 2.0932 19.5731 2.5422 19.5731C2.8872 19.5731 3.2362 19.4861 3.5582 19.3091L17.0722 11.9011C17.7602 11.5231 18.1712 10.8291 18.1712 10.0421C18.1712 9.2561 17.7602 8.5611 17.0722 8.1841Z" fill="white"/>
</svg>
