<svg width="97" height="111" viewBox="0 0 97 111" fill="none" xmlns="http://www.w3.org/2000/svg">
<path d="M37.7885 51.0167C37.9787 50.5237 44.6132 50.7552 44.9282 51.2658C45.4478 52.1079 44.6244 52.3053 41.27 52.1447C37.9975 51.9881 37.4806 51.8204 37.7885 51.0167Z" fill="#F7BF57"/>
<path d="M39.3803 34.0734C40.3039 34.0736 40.0079 37.2412 38.8305 39.9572C37.4926 43.0436 37.3342 43.5901 37.5835 44.2472C37.8581 44.9698 38.7319 45.2346 40.1118 45.0138C41.1797 44.843 41.6751 45.6584 40.7251 46.0236C37.2561 47.3568 35.4261 44.6149 37.2094 40.755C38.1811 38.6514 38.4825 37.7368 38.8481 35.7755C39.0226 34.8392 39.2625 34.0734 39.3803 34.0734Z" fill="#F7BF57"/>
<path d="M67.8784 37.506C68.4165 37.2692 69.8699 37.5609 70.3588 38.004C70.9093 38.5028 70.7298 38.9604 70.0532 38.7833C69.6387 38.6747 69.5764 38.8094 69.5668 39.8331C69.5429 42.4097 68.6946 44.5335 67.9399 43.9064C67.705 43.7112 67.7133 43.3603 67.978 42.339C68.4441 40.5394 68.4264 38.7072 67.9409 38.5206C67.4831 38.3445 67.4431 37.6979 67.8784 37.506Z" fill="#F7BF57"/>
<path d="M46.6635 37.0812C46.6635 36.6901 47.6336 36.8181 48.6645 37.3449C50.2766 38.1681 51.4339 38.2356 52.9233 37.5939C54.8464 36.7655 55.082 37.6216 53.2299 38.7081C51.4325 39.7624 46.6638 38.5807 46.6635 37.0812Z" fill="#F7BF57"/>
<path d="M29.2045 36.006C29.4703 35.7398 29.6903 35.799 30.9487 36.4689C32.3829 37.2324 32.6836 37.2424 34.354 36.5831C36.533 35.7231 37.0956 36.3817 35.1547 37.5206C32.8874 38.8513 27.6854 37.527 29.2045 36.006Z" fill="#F7BF57"/>
<path d="M47.4184 29.2423C50.4656 28.7962 54.9033 29.6008 56.6176 30.9103C58.4949 32.3441 57.3564 32.643 54.812 31.3839C52.8582 30.4171 52.8579 30.4171 49.4995 30.4171C45.8252 30.4171 44.5012 29.6695 47.4184 29.2423Z" fill="#F7BF57"/>
<path d="M29.8481 28.1398C32.1531 27.4189 36.6301 27.9299 37.0249 28.9591C37.2804 29.6263 36.618 29.7036 34.7612 29.2238C32.7417 28.702 31.633 28.7695 29.3647 29.5509C27.6661 30.136 27.5259 30.1451 27.5258 29.6662C27.5258 29.1916 28.4708 28.5705 29.8481 28.1398Z" fill="#F7BF57"/>
<path fill-rule="evenodd" clip-rule="evenodd" d="M42.0043 0.192518C46.8323 -0.570521 54.0734 1.0182 56.9985 3.48256C57.7955 4.15407 57.9728 4.19261 60.3725 4.20521C68.2241 4.24646 73.6999 10.1464 74.8715 19.8263C75.1371 22.0197 75.1917 22.1552 76.5131 23.8839C79.6469 27.9841 79.2788 33.6321 75.7182 36.0753C74.9443 36.6063 74.8939 36.725 75.0258 37.6935C75.5135 41.2735 72.7386 46.5328 69.6733 47.839C68.9521 48.1464 68.8767 48.2909 68.77 49.5812C68.5432 52.3154 65.6705 54.1398 62.5717 53.5167C60.9387 53.1884 60.6746 53.3776 60.8735 54.7355C61.0601 56.0104 61.6349 56.3723 64.2895 56.8849C78.2149 59.5732 81.8956 62.4306 88.3354 75.5538C93.2885 85.6477 93.4773 86.1143 92.9145 86.8839C92.5984 87.3168 92.6812 87.738 93.6626 90.6662C94.2697 92.4787 94.9965 95.2099 95.2768 96.7355C95.557 98.2606 95.8401 99.7636 95.9067 100.076C96.2025 101.465 96.0311 101.64 95.6997 102.514L95.4799 103.129C93.9592 107.104 87.1351 108.205 68.9155 107.467C61.1425 107.152 61.1423 107.152 59.1001 107.913C56.3272 108.947 54.7969 109.205 49.937 109.462C46.8734 109.624 45.0567 109.859 43.02 110.358C40.0166 111.093 37.5109 111.139 36.7085 110.472C36.4022 110.218 35.7987 110.132 34.7114 110.188C33.3396 110.258 33.0605 110.19 32.3803 109.616C31.9291 109.236 31.2967 108.965 30.8598 108.965C29.2412 108.965 28.4725 107.713 29.1401 106.164C29.1788 106.074 29.1596 106.004 28.9975 105.946C28.0745 106.039 25.1243 106.008 22.6147 105.857C21.9232 105.815 23.1409 105.759 25.3217 105.734C25.63 105.73 25.9307 105.729 26.2192 105.729C24.9987 105.691 23.294 105.657 20.9282 105.616C8.15705 105.398 2.10522 103.379 1.30318 102.374C0.501298 101.369 0.375012 101.117 0.0600134 99.8244C-0.255045 98.5311 0.621448 92.2585 3.85689 86.8751C4.59092 85.6534 5.1147 84.4797 5.1147 84.0558C5.11512 82.8194 13.193 70.4634 16.8706 66.0744C20.4475 61.8052 24.8965 58.9809 29.5493 58.0265C32.4044 57.4406 32.3128 57.5882 30.6928 56.1876C26.3456 52.4292 24.2554 45.578 24.2524 35.0734C24.2516 31.9135 24.2515 31.9132 23.6137 31.8605C21.9627 31.7233 20.3524 30.0674 19.8012 27.9396C19.5736 27.0608 19.1902 26.4243 18.5004 25.7814C14.645 22.1878 17.2611 14.0153 22.9077 12.0138C23.5777 11.7763 24.3743 11.4849 24.6772 11.3663C24.9804 11.2471 25.643 10.4925 26.1499 9.68861C29.2303 4.80295 35.1078 1.28238 42.0043 0.192518ZM90.6821 86.2072C87.9875 83.8845 74.0342 90.0524 75.9741 92.7091C76.2633 93.1047 76.4831 93.1163 78.4116 92.839C81.421 92.4065 86.0398 92.566 86.143 93.1056C86.2102 93.4576 85.7187 93.5301 82.3686 93.6622C80.2508 93.7457 78.0647 93.9309 77.5102 94.0744C76.2743 94.3949 69.1915 95.5714 62.2944 96.6017C56.6657 97.4424 56.7395 97.421 57.2895 98.0578C58.5843 99.557 58.2544 101.151 56.5434 101.664C55.6316 101.938 55.5968 101.988 55.686 102.924C55.7834 103.948 54.7879 104.928 53.6469 104.93C53.4025 104.931 52.8922 105.28 52.5122 105.705C51.8308 106.469 49.5252 106.842 48.6879 106.323C48.5494 106.238 47.9195 106.343 47.2885 106.558C46.6577 106.772 45.5464 106.948 44.8188 106.948C42.066 106.948 36.5983 109.092 37.6489 109.759C38.2276 110.127 39.7711 109.989 42.4292 109.333C44.1948 108.898 46.276 108.618 48.9292 108.46C54.542 108.125 55.2956 108.011 58.3667 107.021C61.1303 106.13 61.1304 106.129 69.5717 106.431C88.967 107.124 94.7592 105.872 94.7592 100.988C94.759 97.5994 91.9083 87.2647 90.6821 86.2072ZM41.8139 105.655C39.795 104.524 38.9904 104.661 35.352 106.755C32.7001 108.281 32.3507 109.203 34.4204 109.214C35.0204 109.217 38.0537 107.888 38.9829 107.215C39.2226 107.041 39.8143 106.799 41.5014 106.181C42.1659 105.938 42.2034 105.874 41.8139 105.655ZM37.3422 103.833C35.8404 103.532 35.1613 103.706 32.6245 105.041C29.9527 106.447 29.309 107.176 30.2788 107.695C31.0339 108.1 31.4483 108.013 32.3374 107.263C32.7896 106.882 34.2843 105.991 35.6586 105.283C38.0871 104.033 38.1342 103.992 37.3422 103.833ZM48.4624 93.0763C44.8388 91.9403 41.2993 92.7524 35.5483 96.0372C28.2251 100.22 25.7192 106.678 32.5913 103.657C35.8365 102.231 37.4419 102.356 41.7524 104.37C44.4556 105.634 47.0405 106.036 47.0405 105.193C47.0389 104.306 41.9688 100.99 39.4936 100.258C38.3865 99.9306 38.1359 99.3058 39.059 99.1749C40.5297 98.9662 44.3807 101.059 47.3764 103.696C49.5699 105.627 51.6995 106.057 51.6997 104.569C51.6997 103.126 45.4014 98.177 42.5444 97.3761C41.3601 97.0438 40.8482 96.4477 41.5239 96.1876C42.9703 95.6319 49.1749 99.4367 51.9272 102.568C52.9273 103.705 53.8799 104.004 54.4233 103.348C55.2228 102.383 51.2322 97.9153 48.0483 96.2101C45.4572 94.8224 44.7438 94.0924 45.9711 94.0841C47.1958 94.0763 50.2636 95.9408 52.1967 97.8683C54.4204 100.086 55.157 100.639 55.8862 100.642C59.2086 100.652 53.2463 94.5759 48.4624 93.0763ZM11.142 84.2833C7.30219 83.2066 6.57081 83.7594 3.35396 90.1788C-2.5349 101.931 1.27372 104.679 23.4555 104.679C27.6778 104.679 27.6778 104.678 27.6645 103.346C27.6451 101.416 28.8643 99.4557 31.1137 97.799C33.2702 96.2111 33.3901 96.3752 29.3461 95.3829C27.4448 94.9165 24.246 94.0225 22.2377 93.3966C16.5734 91.631 15.18 91.3222 11.9877 91.1222C9.59899 90.9725 9.0175 90.8618 9.01705 90.5578C9.01705 89.6588 14.8023 89.9988 18.4213 91.1105C20.3202 91.694 20.4406 91.6265 19.8481 90.3107C18.7846 87.9493 15.0874 85.3899 11.142 84.2833ZM26.2221 91.0617C25.8077 86.9823 25.8457 87.0223 24.3774 89.1115C21.8972 92.6403 21.9081 92.2023 24.2836 92.9328C26.7698 93.6973 26.515 93.9431 26.2221 91.0617ZM60.0766 55.9591C59.6287 55.0369 59.628 55.0367 58.4965 55.9083C54.195 59.2214 48.9584 61.038 43.6733 61.049C41.0608 61.0545 41.06 61.0546 41.2368 61.8742C41.6852 63.9514 41.7025 64.5851 41.311 64.5851C40.8387 64.5848 40.118 63.1207 40.1127 62.1515C40.1072 61.1454 39.8794 60.9015 38.7563 60.6945C37.7752 60.5137 37.7752 60.5134 37.9321 61.84C39.2113 72.6562 58.5029 71.1891 61.6274 60.0382C62.0655 58.4744 62.0661 58.4742 61.2954 57.6779C60.8716 57.2399 60.3231 56.4665 60.0766 55.9591ZM80.5678 65.172C80.6595 65.2714 80.7512 65.372 80.8422 65.4747L80.5678 65.172C80.4762 65.0726 80.3848 64.9752 80.2924 64.879L80.5678 65.172ZM57.3754 20.8986C56.3385 18.6773 56.3384 18.6771 55.5424 19.8078C53.0478 23.3518 48.1881 24.7729 44.3588 23.0783C43.4707 22.6851 43.3795 22.6956 41.7143 23.3654C38.8062 24.5345 35.227 24.4167 33.1977 23.0851C32.7567 22.796 32.4802 22.7809 31.8266 23.0089C31.0503 23.28 28.763 23.1971 26.8686 22.8302C25.8407 22.631 25.7989 22.9451 25.604 32.3078C25.2333 50.1096 29.172 57.4112 40.3715 59.6837C49.0099 61.4365 61.2742 54.8588 63.8618 47.0851C63.9165 46.9213 64.4508 46.945 65.3813 47.1535C69.5684 48.092 73.476 44.2761 73.8022 38.9298C73.8946 37.4171 73.8439 37.0775 73.5083 36.9484C73.2856 36.8628 73.1031 36.5297 73.103 36.2081C73.103 34.0696 69.3595 34.0425 67.1254 36.1652C65.4781 37.7305 63.9103 34.7454 64.0952 30.3956C64.2034 27.8532 64.2037 27.8528 62.8618 27.1495C62.1146 26.7577 60.8315 25.7093 59.9663 24.7833C58.8737 23.6136 58.1049 22.4612 57.3754 20.8986ZM62.8891 52.4054C63.1115 52.4596 63.4333 52.4749 63.8588 52.4767C63.3274 52.4745 62.9578 52.4506 62.7417 52.3576L62.8891 52.4054ZM63.7485 49.8302C63.6455 49.9555 63.5466 50.088 63.4536 50.2277C62.8469 51.1387 62.5258 51.6848 62.5122 52.0099C62.5273 51.6871 62.8485 51.1466 63.4536 50.2482C63.5535 50.0998 63.6523 49.961 63.7485 49.8302Z" fill="#F7BF57"/>
</svg>
