<svg width="145" height="107" viewBox="0 0 145 107" fill="none" xmlns="http://www.w3.org/2000/svg">
<path d="M41.3822 8.88969C42.1721 8.50081 42.5323 8.45796 42.7962 8.72173C43.1294 9.05478 43.0875 9.77527 42.6331 11.5323C42.1413 13.4342 41.9683 14.6252 41.8236 17.0909C41.6889 19.3855 41.6478 19.7315 41.3675 20.96C40.8723 23.1306 39.5093 25.5797 37.7269 27.503C36.7455 28.5619 34.2988 30.3311 32.0335 31.6192C31.4324 31.961 30.8633 32.331 30.7689 32.4415C30.6748 32.5517 30.5361 32.9305 30.4603 33.2832C30.3845 33.636 30.1797 34.4955 30.0062 35.1924C28.9001 39.6326 28.0147 47.055 28.0531 51.5635C28.0628 52.7068 28.2056 54.3636 28.2474 53.8204C28.2779 53.4218 29.3434 50.9176 29.9154 49.9014C30.5854 48.7112 31.2483 47.7025 31.6322 47.2881C31.8924 47.0072 31.9164 46.8843 32.0013 45.4297C32.2761 40.728 33.4935 37.6969 36.1702 35.0469C37.6665 33.5656 39.4985 32.4984 42.7493 31.2139C45.3845 30.1727 48.2297 29.4741 50.8402 29.2286C51.2611 29.189 51.9546 29.0873 52.3812 29.002C52.8075 28.9169 53.4178 28.8385 53.7376 28.8272C54.2246 28.8099 54.352 28.8463 54.5208 29.0547C54.8559 29.4684 54.9135 29.356 52.9632 32.087C52.6273 32.5573 51.9332 33.6303 51.4202 34.4717C47.1703 41.4419 45.8465 43.1619 43.5794 44.6612C41.4953 46.0395 39.8792 46.5279 35.1829 47.2002C34.33 47.3224 33.3033 47.5301 32.9007 47.6622C32.1873 47.8963 32.1559 47.923 31.6312 48.7295C30.9762 49.7364 29.682 52.3559 29.3597 53.3282C29.0102 54.3824 28.6996 55.9904 28.6527 56.9854C28.5423 59.3271 29.4682 65.7891 30.8304 72.1846C31.0352 73.1465 31.2958 74.4001 31.4095 74.9707L31.6156 76.0088L31.7572 75.2442C32.0881 73.4593 32.6799 71.8432 33.932 69.3038L34.4896 68.1729L34.5306 65.5323C34.5786 62.4372 34.7714 61.1219 35.4749 59.085C36.8797 55.0183 38.9321 52.6979 42.6556 50.9678C44.9702 49.8923 47.182 49.2192 50.7308 48.5108C51.9336 48.2706 53.4546 47.9003 54.1107 47.6875C55.4103 47.266 55.7719 47.2677 55.8792 47.6944C55.9936 48.1499 55.4622 49.5474 54.2357 52.0166C53.5964 53.3038 53.3409 53.9082 52.1683 56.9024C50.8936 60.1573 48.5568 63.4369 46.5726 64.7569C45.4846 65.4806 43.9509 66.2074 42.6947 66.5957C42.1835 66.7538 40.651 67.1037 39.2904 67.3731C37.9299 67.6424 36.457 67.9755 36.0169 68.1133L35.2171 68.3643L34.7347 69.5088C33.0626 73.4773 32.8573 74.0872 32.5794 75.9053C32.2619 77.9845 32.4485 81.2738 33.0101 83.4834C33.3017 84.6307 34.1833 89.3343 34.4876 91.3682C34.6752 92.6222 34.8148 93.2867 34.8558 93.1172C34.8922 92.9668 34.9795 92.5491 35.0492 92.1885C35.2598 91.0975 35.999 88.5023 36.3949 87.4649C36.7239 86.6031 36.7558 86.4325 36.6654 86.0049C36.6091 85.7386 36.5332 84.5559 36.4974 83.377C36.4448 81.6467 36.468 81.0142 36.6175 80.0977C37.112 77.0679 38.3294 74.7073 40.4212 72.7207C42.4515 70.7929 46.141 68.9014 50.2933 67.6612C51.075 67.4277 52.5512 66.9817 53.5736 66.67C55.521 66.0762 55.9674 66.0344 56.3753 66.4034C56.4882 66.5055 56.5804 66.6347 56.5804 66.6905C56.5795 66.8883 55.9348 68.4009 55.6751 68.8145C55.0324 69.8382 53.7896 72.3949 53.014 74.2881C52.0791 76.5704 51.864 77.0567 51.3802 77.9776C49.9734 80.6554 48.4264 82.2854 45.8636 83.7911C44.3487 84.6812 43.3339 85.117 40.5345 86.0791C39.0761 86.5804 37.7441 87.0619 37.5745 87.1495C37.3088 87.287 37.2194 87.4712 36.9212 88.4913C35.9972 91.653 35.4631 94.6553 35.4593 96.7139C35.4553 98.9501 35.8719 105.467 36.0189 105.47C36.057 105.47 36.2684 104.75 36.4886 103.87C37.2364 100.882 38.3256 99.2086 40.4827 97.7315C42.0121 96.6843 43.8896 96.2006 45.1546 96.5284C45.8855 96.7178 45.9046 96.9469 45.2503 97.6475C44.973 97.9447 44.3713 98.7556 43.9124 99.4502C43.3558 100.293 42.6948 101.102 41.929 101.876C40.83 102.987 40.7201 103.066 39.3597 103.728C37.1096 104.821 36.7628 105.144 36.4642 106.426L36.3304 107H35.0784L34.8919 105.477C34.4892 102.189 33.084 98.2829 31.4242 95.8389C30.8084 94.9326 29.3984 93.2684 29.1644 93.1719C29.0568 93.1281 27.7156 93.0495 26.1829 92.9981C21.5022 92.8411 19.0706 92.5633 17.5999 92.0166C16.1262 91.4688 13.5547 89.8885 12.4827 88.8721C12.1233 88.5311 11.2595 87.5888 10.5638 86.7774C9.86789 85.9658 9.07521 85.0624 8.80208 84.7696C8.17367 84.0959 5.93349 82.1189 5.34798 81.7217C5.10414 81.5563 4.7396 81.2515 4.53841 81.044L4.17317 80.667L4.54427 80.2959L4.91634 79.9249L6.72005 79.8497C7.71223 79.8079 9.16377 79.7315 9.94563 79.6807C13.6314 79.4408 18.7832 80.1626 20.8304 81.2051C23.1648 82.3941 25.1773 84.1175 26.4564 86.0235C27.0831 86.9575 28.2151 89.2385 28.8109 90.7676C29.2628 91.9276 29.3178 92.0096 30.3626 93.1065C30.9602 93.7338 31.7889 94.7632 32.2103 95.4024C32.9089 96.4619 34.0516 98.6017 34.347 99.4034L34.4671 99.7305L34.4261 99.3487C34.0697 96.0145 33.3118 90.6583 32.9486 88.9092C32.6561 87.5013 32.2272 86.2313 31.4925 84.5948C30.3944 82.1491 29.5363 80.8254 27.2874 78.1114C26.3414 76.9696 26.0575 76.6953 25.7318 76.6075C25.5125 76.5484 24.2328 76.4992 22.888 76.4981C16.9252 76.4931 14.4337 75.8825 10.9544 73.5743C9.26638 72.4544 7.9298 71.0061 6.65169 68.9112C5.32624 66.7387 3.64903 64.2822 2.87435 63.379C1.28958 61.5311 0.910941 60.7748 1.35091 60.335C1.6272 60.0588 1.93108 60.0495 3.39388 60.2676C3.99123 60.3566 5.6846 60.5049 7.15755 60.5977C12.8298 60.9549 14.7647 61.3365 17.5697 62.6504C19.835 63.7116 21.4026 64.9951 22.9408 67.0469C24.2983 68.8581 25.341 71.3019 26.2435 74.7911L26.5501 75.9756L27.6243 77.1475C29.1204 78.7783 30.3264 80.3125 31.0023 81.4444C31.3175 81.9722 31.5952 82.3845 31.6204 82.3624C31.6844 82.2984 30.5024 75.6622 30.055 73.5733C29.2032 69.5971 27.8463 66.6011 24.8724 62.128C24.3529 61.3465 23.6472 60.2575 23.304 59.7081L22.68 58.709L21.7806 58.4288C20.5644 58.0502 20.3365 57.9966 17.8187 57.4913C14.7084 56.8671 13.5249 56.4466 11.4583 55.2325C9.76726 54.2388 8.32024 52.7059 6.9261 50.4317C6.66816 50.0108 5.60153 47.9688 4.55599 45.8946C2.68357 42.1798 1.42497 40.068 0.378252 38.8868C-0.0337537 38.4218 -0.0577984 38.3609 0.0647755 38.0918C0.25045 37.6846 0.559127 37.6423 1.83528 37.8497C2.44767 37.9492 3.71098 38.1549 4.6429 38.3067C7.29069 38.738 9.62957 39.3811 11.8597 40.292C12.9585 40.7409 15.9688 42.2874 16.6702 42.7627C19.5498 44.714 21.3221 47.4859 22.2367 51.4698C22.5108 52.6637 22.6661 53.9527 22.7855 56.0381C22.8926 57.911 22.778 57.6196 24.1175 59.4493C25.9769 61.9894 27.9998 65.2095 28.4818 66.3965C28.6165 66.7282 28.7472 66.9797 28.7718 66.9551C28.7965 66.9304 28.7424 66.5716 28.6517 66.1582C28.2131 64.1588 27.2427 55.9035 27.0023 52.126C26.9111 50.6938 26.509 48.2943 26.013 46.2227C25.6187 44.5749 24.6889 41.2645 24.5384 40.9727C24.491 40.8808 23.993 40.5644 23.432 40.2696C20.7792 38.8757 18.477 37.0263 16.2845 34.5284C14.4499 32.4382 13.4114 30.38 12.8079 27.6358C12.4976 26.2245 12.467 25.9677 12.2367 22.7989C12.0663 20.456 11.9136 19.3584 11.514 17.6036C11.1782 16.1289 11.361 15.6235 12.2308 15.6172C12.8187 15.6132 15.6453 17.2233 17.5999 18.6758C21.2207 21.3663 22.6055 22.8785 24.0443 25.7159C25.2295 28.0532 25.6874 29.9511 25.8158 33.0508C25.8871 34.7759 25.8029 35.9226 25.3978 38.6915L25.1634 40.2872L25.7327 41.9952C26.0456 42.9347 26.5193 44.5533 26.7855 45.5918C27.0517 46.6302 27.272 47.381 27.2747 47.2608C27.3041 45.9734 27.759 42.218 28.2152 39.5C28.5634 37.4243 29.3515 33.9833 29.7425 32.8321C29.9005 32.3667 29.8928 32.2927 29.5277 30.8956C28.8531 28.3138 28.7665 27.6833 28.763 25.2891C28.76 23.2682 28.7813 23.0245 29.0443 22.0645C29.4423 20.6116 30.4188 18.4165 31.1712 17.2832C32.8884 14.6972 37.8207 10.6431 41.3822 8.88969Z" fill="#7190F9"/>
<path d="M81.265 41.7969C81.4605 41.7605 81.6204 41.7532 81.6204 41.7803C81.6202 41.8074 81.3899 41.9643 81.1087 42.129C80.5051 42.4825 79.3673 42.6129 78.8324 42.3897C78.5213 42.2599 78.5666 42.2435 79.7074 42.0586C80.3687 41.9514 81.0694 41.8333 81.265 41.7969Z" fill="#7190F9"/>
<path d="M84.2533 38.1944C85.0178 37.8257 85.098 37.8366 85.098 38.3086C85.098 38.5815 85.0628 38.667 84.9837 38.5879C84.9047 38.509 84.764 38.555 84.5247 38.7374C84.0494 39.0997 82.627 39.7345 81.6888 40.003C80.5919 40.3168 78.8094 40.3975 77.9349 40.1729C77.5619 40.0772 77.08 39.9253 76.8636 39.835C76.5121 39.6882 76.4836 39.646 76.5931 39.4415C76.6855 39.269 76.7871 39.2268 77.0081 39.2696C78.9965 39.6548 82.2157 39.177 84.2533 38.1944Z" fill="#7190F9"/>
<path d="M101.603 23.8936C101.835 23.9754 101.759 24.1747 101.202 24.9375C100.539 25.8479 100.218 26.7592 100.136 27.9678C100.069 28.9658 99.8944 29.3887 99.5501 29.3887C99.3497 29.3887 99.3345 29.3121 99.3363 28.3233C99.3395 26.5034 99.7568 25.1559 100.554 24.3946C100.943 24.023 101.379 23.8149 101.603 23.8936Z" fill="#7190F9"/>
<path d="M73.8431 27.251C74.3 26.9407 74.5711 26.9115 74.6673 27.1622C74.7997 27.5081 74.3661 28.0086 73.5892 28.4053C72.8836 28.7657 72.7793 28.7871 71.7904 28.7823C70.7157 28.777 70.4221 28.6939 69.9486 28.2627C69.5264 27.8783 69.6235 27.7103 70.221 27.792C71.7328 27.9991 72.0433 27.9946 72.7513 27.7549C73.1354 27.6248 73.6269 27.3979 73.8431 27.251Z" fill="#7190F9"/>
<path d="M84.682 27.5479C84.8323 27.5479 84.8938 27.5723 84.8187 27.6026C84.7434 27.633 84.6204 27.633 84.5452 27.6026C84.4704 27.5724 84.5319 27.5479 84.682 27.5479Z" fill="#7190F9"/>
<path d="M87.097 25.4004C87.8186 24.9075 87.8972 24.8761 88.1536 24.9795C88.7263 25.2105 87.5051 26.5309 86.2572 27.0303C85.2987 27.4139 84.32 27.493 83.2728 27.2706C82.3116 27.0663 81.9487 26.8557 81.9486 26.503C81.9486 26.0173 82.2015 25.945 82.9915 26.2041C83.3828 26.3325 83.9603 26.4359 84.2747 26.4346C85.0451 26.4313 86.2145 26.0032 87.097 25.4004Z" fill="#7190F9"/>
<path d="M82.1566 19.0567C83.011 18.8382 84.9104 18.7569 85.8206 18.8995C86.6774 19.0339 87.8948 19.3728 88.5286 19.6543C89.0819 19.9001 90.1497 20.6946 90.1497 20.8604C90.149 20.9161 89.9458 20.89 89.6986 20.8028C88.4415 20.3596 86.0754 20.036 84.2445 20.0567C82.9493 20.0715 82.6033 20.154 80.6009 20.9307C80.0803 21.1326 80.0723 21.1328 79.9134 20.917C79.8248 20.7968 79.7668 20.5505 79.7845 20.3702C79.8129 20.0819 79.9135 19.9941 80.6253 19.6416C81.0705 19.4213 81.7598 19.1581 82.1566 19.0567Z" fill="#7190F9"/>
<path fill-rule="evenodd" clip-rule="evenodd" d="M76.7161 3.40532C79.2724 0.771352 83.7204 -0.464709 88.3997 0.159225C91.6975 0.598979 94.7854 1.76082 97.4847 3.57622C99.5346 4.95479 101.121 6.53714 102.65 8.72856C103.09 9.35981 103.834 10.4288 104.302 11.1036C105.614 12.9926 107.206 14.4022 109.122 15.3711C111.398 16.5221 112.793 17.4991 114.107 18.8633C116.219 21.0566 117.251 23.6755 117.264 26.8741C117.273 29.1083 117.52 29.5752 119.949 31.9571C121.923 33.8939 122.549 34.6921 123.065 35.9239C124.68 39.7863 123.236 43.9368 119.563 45.9844C118.913 46.3468 117.104 46.9883 116.732 46.9883C116.606 46.9883 116.367 47.1464 116.201 47.3399C116.036 47.5335 115.64 47.9701 115.323 48.3096L114.745 48.9268L116.635 49.7754C117.674 50.2422 119.097 50.8811 119.798 51.1954C122.245 52.2923 123.944 53.4634 125.907 55.4053C126.99 56.4774 127.491 57.0774 128.228 58.1924C130.352 61.4045 131.486 64.2736 134.213 73.3321C134.584 74.5646 135.258 76.7781 135.709 78.251C136.161 79.7239 136.918 82.2111 137.391 83.7784C137.864 85.3454 138.874 88.4445 139.634 90.6651C141.344 95.6609 142.89 100.299 144.049 103.909C144.536 105.425 144.964 106.74 144.999 106.833C145.057 106.982 140.186 107 98.5257 107C62.7034 107 51.9886 106.97 51.9886 106.87C51.9889 106.798 52.0891 106.38 52.2122 105.941L52.4368 105.143L51.3558 103.934C49.652 102.028 48.6518 100.17 48.3284 98.3116C48.1035 97.0184 48.1021 94.2021 48.3255 92.6045C48.8293 89.0017 50.66 84.6143 52.6956 82.1319C53.8725 80.6968 55.8241 78.08 56.9349 76.4473C58.1091 74.7216 59.2134 72.8384 61.7406 68.2569C62.6998 66.5178 64.0216 64.2406 64.6781 63.1963C66.975 59.5421 67.8594 58.562 70.4056 56.8487C71.1836 56.3252 71.8375 55.8416 71.8587 55.7745C71.922 55.5727 71.2919 55.4968 68.8822 55.4161C66.7059 55.3433 66.5524 55.324 65.9476 55.0459C65.0759 54.6451 64.538 54.1955 63.9593 53.3848C62.872 51.8617 62.6664 51.047 62.6497 48.1905C62.6351 45.696 62.6942 45.9619 61.6224 43.5235C60.7241 41.4799 60.4122 40.1485 60.4095 38.337C60.4058 35.8065 60.9738 34.0102 62.6497 31.2471C64.0801 28.8888 64.4934 27.7255 64.4945 26.0547C64.4949 25.4024 64.4183 24.6309 64.305 24.1416C63.7046 21.5477 63.6027 19.6411 63.9564 17.6377C64.3044 15.6663 65.2052 13.0211 66.2279 10.9698C67.185 9.05003 68.7432 7.11167 70.2484 5.9688C71.7352 4.84004 74.0861 3.92751 75.5648 3.90532C76.2162 3.89559 76.2573 3.87813 76.7161 3.40532ZM74.7132 82.792C71.0972 82.489 69.9145 82.4686 68.6683 82.6866C65.6397 83.2162 63.0343 84.6708 60.1478 87.4444C59.1025 88.4487 58.3277 89.3256 57.4329 90.5186C56.0781 92.3251 55.2692 93.5899 55.2689 93.9004C55.2689 94.1478 55.7279 94.4561 55.9622 94.3663C56.1396 94.2975 56.6541 93.6283 57.8187 91.9541C58.5822 90.8565 59.7538 89.5914 60.7933 88.7422C62.4378 87.3988 65.056 85.8349 66.4437 85.3663C67.123 85.137 68.279 85.054 68.2806 85.2344C68.2806 85.2878 67.8745 85.4922 67.3783 85.6885C66.0375 86.2192 64.0951 87.2253 62.932 87.9913C61.6113 88.8611 59.6693 90.7409 58.4886 92.293C57.9837 92.9567 57.4369 93.6634 57.2738 93.8633C57.1096 94.0646 57.0232 94.2595 57.0794 94.3008C57.2293 94.4086 57.265 94.8958 57.1165 94.8047C57.0503 94.7637 57.0768 94.8545 57.1761 95.0059C57.3942 95.3385 57.6817 95.4266 58.1273 95.2989C58.5901 95.1661 58.6805 95.0758 59.3763 94.0411C59.7463 93.4908 60.4757 92.6588 61.2132 91.9473C62.6588 90.5527 63.9561 89.7565 66.348 88.7969C68.1664 88.0674 69.2531 87.7834 69.6097 87.9424C69.8477 88.0486 69.8374 88.0652 69.3568 88.3467C69.0811 88.5081 68.3204 88.8398 67.6663 89.084C64.8653 90.1297 63.3066 91.0487 61.7152 92.5928C60.5395 93.7336 59.2902 95.2636 59.3382 95.504C59.367 95.6482 59.5017 95.686 59.9798 95.6846C60.4937 95.683 60.6978 95.614 61.3431 95.2256C63.4811 93.9389 66.2088 92.7279 68.2259 92.17C69.2281 91.8928 69.4789 91.8682 71.2327 91.8682C74.3124 91.8682 77.113 92.3937 79.0511 93.336C80.6023 94.0902 83.3175 96.0871 86.5531 98.8536L87.888 99.9942L88.1898 99.7793C88.3562 99.661 88.7945 99.2345 89.1634 98.8321C90.385 97.4993 91.611 95.1928 92.3392 92.8594C92.5857 92.0694 92.8817 91.1662 92.9964 90.8526L93.2054 90.2832L92.47 89.8741C92.0657 89.6491 90.8001 88.9322 89.6575 88.2813C84.925 85.5851 80.7143 83.7758 77.7747 83.1758C77.1932 83.057 75.8155 82.8844 74.7132 82.792ZM67.5355 30.3282C67.169 30.1362 66.9476 30.2428 66.5872 30.7872C65.5586 32.3411 64.2839 38.2815 64.4945 40.5381C64.6496 42.2001 65.3328 43.8092 66.597 45.4874C66.9696 45.9819 68.0505 47.2477 68.9984 48.2999C71.7342 51.3365 72.5353 52.5444 72.7572 53.9698C72.9044 54.9154 72.7734 55.4676 71.9681 57.3174C70.3179 61.1084 68.1791 64.7166 65.3079 68.5528C64.7777 69.2611 64.344 69.9014 64.3441 69.9747C64.3449 70.2783 65.0106 71.4771 65.6322 72.294C66.6829 73.6749 67.7967 74.5384 69.7132 75.4581C71.2191 76.1807 73.4919 76.9555 74.1693 76.9776L74.6624 76.9942L76.7591 70.7627C77.912 67.336 79.112 63.8437 79.4261 63.002C79.7403 62.1603 80.2466 60.8078 80.5511 59.9961C81.2686 58.0837 82.4825 54.253 82.682 53.2735C82.8856 52.273 82.823 50.7836 82.555 50.2676C82.175 49.5369 81.7309 49.0648 81.4202 49.0625C81.1063 49.0605 79.8298 48.8041 79.515 48.6797C79.3565 48.6171 79.3826 48.7358 79.6654 49.3536C79.9291 49.9302 80.0207 50.3052 80.0609 50.9776C80.1071 51.752 80.0946 51.8335 79.9505 51.6885C79.8611 51.5984 79.684 51.2405 79.557 50.8936C79.0253 49.4412 78.4282 48.4963 77.3089 47.334C75.9547 45.928 74.0982 44.7195 72.8187 44.4112C71.7734 44.1596 71.1501 43.7465 70.7034 43.0098C69.8985 41.6821 69.5179 39.6864 69.6488 37.4747C69.6931 36.7249 69.7331 35.4721 69.7376 34.6905C69.7446 33.443 69.716 33.2029 69.5013 32.7266C69.1901 32.0367 68.9677 31.794 68.6488 31.794C68.2655 31.7941 68.0802 32.177 67.6038 33.9532C66.9951 36.2231 66.8389 37.2093 66.8226 38.8985C66.809 40.2993 67.0108 43.9346 67.1409 44.6377C67.1993 44.9529 67.1944 44.9574 67.0267 44.7491C66.3426 43.8994 65.9053 39.0623 66.2952 36.6582C66.5014 35.3874 67.152 32.9804 67.5882 31.8741C68.0025 30.8236 67.9936 30.5681 67.5355 30.3282ZM98.1556 34.1915C98.1308 34.338 97.864 35.1744 97.5628 36.0499C97.2619 36.9251 96.7538 38.1577 96.4329 38.7891C96.1121 39.4204 95.6477 40.4337 95.4007 41.0401C94.2043 43.9782 92.2372 46.5792 90.2044 47.9102C88.8767 48.7794 86.6603 49.6039 85.639 49.6094C85.4736 49.6103 85.3382 49.6351 85.3382 49.6641C85.3384 49.6935 85.5438 50.0495 85.7943 50.4561C87.0077 52.4266 87.9168 54.758 88.1829 56.5772C88.4432 58.3575 88.299 58.1088 86.8304 54.2569C86.3899 53.1013 86.5061 53.1551 85.2718 53.5352C84.677 53.7183 83.9771 53.9012 83.7161 53.9415C83.1527 54.0282 83.2097 53.9148 82.5628 56.2247L82.0736 57.9737L82.3265 58.3565C82.9959 59.3677 84.8358 60.9384 86.1009 61.5791C88.2888 62.6876 90.7239 63.077 92.8978 62.6651C96.1578 62.0472 101.231 59.6105 103.602 57.5235C105.32 56.0114 106.821 54.5526 108.167 53.086C110.105 50.9759 111.167 50.0576 112.375 49.4483C113.173 49.0458 113.3 48.9473 113.136 48.8594C113.027 48.8012 111.76 48.4552 110.319 48.0909C105.885 46.9696 104.216 46.3235 102.582 45.0928C101.153 44.0158 100.26 42.7802 99.724 41.1397C99.4328 40.2477 98.8459 37.5322 98.5189 35.5645C98.4189 34.9634 98.3062 34.3486 98.2689 34.1983L98.2015 33.9249L98.1556 34.1915ZM75.0306 8.63383C75.0063 8.31191 74.9225 8.34151 74.6839 8.75591C74.5715 8.95125 73.6855 9.89845 72.7152 10.8604C70.7763 12.7826 69.9874 13.8366 69.3187 15.3985C68.4629 17.3976 68.0453 19.9346 68.1566 22.4581L68.1712 22.7959L68.6361 22.3604C69.2368 21.7972 70.4823 21.2183 71.3607 21.0938C72.3994 20.9467 73.5571 21.1697 74.4593 21.6915C74.8772 21.933 75.7309 22.7205 75.5755 22.7207C75.5348 22.7207 75.6692 23.0286 75.8743 23.4043C76.8545 25.2007 76.9024 27.3206 76.0374 30.6631C75.375 33.2226 75.4806 34.0412 76.5433 34.5811C76.9111 34.7679 77.1903 34.7999 78.4681 34.7999C79.2897 34.7999 79.9977 34.8353 80.0413 34.879C80.1322 34.97 79.7496 35.3212 79.2699 35.587C78.8505 35.8192 77.2058 35.9137 76.6673 35.7364C75.9684 35.5057 75.3895 34.9935 75.0911 34.3418C74.7284 33.5497 74.7796 32.7617 75.3099 30.9737C75.902 28.9773 75.9816 28.4818 75.9857 26.7657C75.9888 25.426 75.9519 25.0618 75.7474 24.4151C75.2815 22.9429 74.4893 22.418 72.5726 22.3106C71.1464 22.2308 70.4049 22.4101 69.4085 23.0762C68.9679 23.3709 68.5571 23.7061 68.4954 23.8213C68.4166 23.9685 68.4362 24.5222 68.5618 25.6807C68.7125 27.0706 68.7209 27.5297 68.6116 28.5889C68.5403 29.2804 68.5148 30.0848 68.555 30.377C68.6178 30.8335 68.6961 30.9646 69.1136 31.3067C69.9325 31.9777 70.467 33.3437 70.4671 34.7647C70.4671 35.5776 70.7412 36.3912 71.5736 38.0528C72.4625 39.827 74.9716 43.7927 75.8158 44.7579C76.0316 45.0044 76.749 45.6546 77.4105 46.2022C78.0718 46.7498 78.8474 47.4025 79.1341 47.6524C79.5999 48.0585 79.7288 48.1123 80.3499 48.1622C81.6335 48.2651 83.0381 48.0205 84.6712 47.4092C87.2721 46.4356 88.752 45.585 91.0394 43.75C93.431 41.8316 95.175 39.5979 96.2874 37.0284C96.7227 36.0229 97.3652 34.0037 97.5804 32.9639C97.7009 32.3816 97.7302 32.3382 97.9486 32.417C98.5901 32.649 100.158 32.3194 101.129 31.7491C101.728 31.3974 102.92 30.1464 103.477 29.2852C104.28 28.043 104.677 26.352 104.471 25.0596C104.234 23.5759 103.251 22.1957 102.014 21.6104C100.625 20.9534 99.8562 21.3534 98.5736 23.4034C98.3198 23.8089 97.9865 24.2399 97.8333 24.3604C97.1759 24.8766 95.8087 24.4678 94.9359 23.4942C94.6789 23.2075 94.1745 22.4122 93.8158 21.7266C92.6237 19.4488 91.6299 18.7256 87.7435 17.3106C82.7504 15.4925 80.0319 14.115 77.8392 12.292C76.3063 11.0177 75.091 9.43509 75.0306 8.63383ZM70.2708 38.0088C70.2527 38.3171 70.3104 39.1233 70.3997 39.7999C70.7263 42.2727 71.2692 43.2774 72.3909 43.4844C72.8703 43.5729 73.4029 43.7497 74.2171 44.0909C74.3304 44.1383 74.168 43.8465 73.8324 43.4004C73.3472 42.7557 71.5587 39.7613 70.5638 37.9278L70.3031 37.4483L70.2708 38.0088Z" fill="#7190F9"/>
<path d="M17.9115 98.0733C19.9502 97.63 20.9874 97.5167 22.138 97.6133C23.2971 97.7107 24.9684 98.1884 26.1829 98.7686C27.1039 99.2086 27.3463 99.3904 28.3158 100.374C29.5262 101.602 30.7356 103.235 32.0892 105.47L32.9827 106.945L32.5081 106.981C32.0914 107.013 32.0066 106.98 31.8148 106.708C30.9116 105.429 29.7851 104.871 27.0579 104.351C24.3647 103.837 22.6813 103.411 21.974 103.065C21.1082 102.642 19.5636 101.784 18.8978 101.356C18.1869 100.899 17.011 100.322 16.0511 99.96C15.1989 99.6384 15.045 99.4537 15.3021 99.0616C15.5677 98.6563 16.0273 98.4829 17.9115 98.0733Z" fill="#7190F9"/>
</svg>
