<svg width="118" height="112" viewBox="0 0 118 112" fill="none" xmlns="http://www.w3.org/2000/svg">
<path d="M64.5687 43.4099C64.7336 43.3922 64.9394 43.5084 65.2845 43.7879C65.4969 43.9599 65.6861 44.0946 65.8743 44.2088C66.0555 44.3116 66.2417 44.403 66.4339 44.4822C66.7059 44.5854 67.0188 44.6701 67.4271 44.7586C68.439 44.978 71.5758 45.0379 72.9964 44.865C73.7342 44.7752 73.8312 44.7865 73.9017 44.9705C74.0841 45.4466 73.0778 45.9609 71.6468 46.1228C70.796 46.219 68.6348 46.0738 67.3421 45.8709C67.293 45.8634 67.2457 45.8562 67.2005 45.8484C66.9475 45.8056 66.734 45.7646 66.5814 45.7185C64.9548 45.2271 63.7848 44.0875 64.3382 43.534C64.3546 43.5175 64.3726 43.5043 64.389 43.491C64.3925 43.4879 64.3962 43.4851 64.3997 43.4822C64.414 43.4712 64.4282 43.4615 64.4427 43.4529C64.4828 43.4274 64.5231 43.4123 64.5687 43.4099Z" fill="#84CA70"/>
<path d="M63.6487 23.1463C64.4609 22.974 66.1162 23.1236 67.1419 23.4627C67.8493 23.6965 68.2045 23.8968 68.6751 24.3269C69.2389 24.8421 69.543 25.276 69.7064 25.9392L69.8431 26.2078L69.8382 26.7566C69.8789 27.1256 69.8933 27.5306 69.8841 27.9578C69.8884 29.1341 69.7477 30.1482 69.3646 31.3504C69.3267 31.4825 69.2883 31.6144 69.2464 31.7439C69.2037 31.8761 69.1212 32.0815 69.013 32.3386C68.6659 33.2266 68.1981 34.2404 67.5775 35.4841C66.5432 37.5571 66.5062 37.6579 66.5511 38.2918C66.5878 38.8095 66.7657 39.2341 67.0882 39.574C67.2011 39.6852 67.3343 39.7935 67.4876 39.905C67.5626 39.9543 67.6418 40.0015 67.7259 40.0457C68.1476 40.2673 68.3751 40.299 69.4036 40.2791C70.012 40.2673 70.3152 40.2708 70.4847 40.3113H70.6575V40.4031C70.6795 40.4275 70.6992 40.4547 70.7171 40.4881C70.8388 40.7157 70.6955 40.9527 70.3939 41.1443C70.3008 41.2129 70.1838 41.2708 70.0443 41.3181C69.7102 41.4478 69.2879 41.5315 68.8392 41.532C67.191 41.534 65.6308 40.1702 65.4144 38.5388C65.3634 38.1542 65.3906 37.7867 65.5374 37.3064V37.2644L65.5814 37.1746C65.7475 36.6803 66.0318 36.0647 66.4769 35.2049C67.3984 33.4249 68.0651 31.8216 68.4105 30.5584C68.4606 30.3671 68.5036 30.1791 68.5423 29.9939C68.6393 29.482 68.6713 28.9523 68.6741 28.034C68.6763 27.3183 68.6706 26.9126 68.6331 26.6218C68.5627 26.2974 68.4616 26.0136 68.3245 25.7644C68.2224 25.5908 68.0877 25.4095 67.9583 25.2644C67.8706 25.1723 67.7759 25.0864 67.6722 25.0066C67.1736 24.6569 66.3974 24.4032 65.5745 24.284C65.3582 24.2732 65.1016 24.2678 64.7806 24.2674C64.3192 24.2666 63.8132 24.2841 63.4251 24.3093C63.3531 24.3242 63.2826 24.3399 63.2142 24.3582C62.6159 24.5176 62.4979 24.5205 62.3558 24.3787L62.3519 24.3748C62.3264 24.359 62.3058 24.3388 62.2894 24.3103L62.263 24.2517C62.048 23.8447 62.6291 23.3626 63.6487 23.1463Z" fill="#84CA70"/>
<path d="M94.9564 33.9724C95.01 33.9715 95.0624 33.9772 95.1126 33.9861C95.2046 33.9967 95.2857 34.0172 95.3538 34.0496C95.5886 34.1277 95.7347 34.2776 95.7347 34.4871C95.7344 34.7099 95.52 34.8522 94.7601 35.1365C93.7521 35.5136 93.463 35.8365 92.9925 37.1082C92.5074 38.4194 92.3522 38.694 91.9915 38.7312C91.9643 38.736 91.9367 38.74 91.9085 38.74C91.9039 38.74 91.8994 38.7391 91.8948 38.739C91.8926 38.739 91.8902 38.74 91.888 38.74C91.8794 38.74 91.871 38.7373 91.8626 38.7371C91.8408 38.7361 91.82 38.7347 91.8001 38.7322C91.6335 38.7148 91.5041 38.6516 91.4691 38.5603C91.4311 38.4615 91.5641 37.9666 91.764 37.4607C91.9639 36.9548 92.1276 36.446 92.1282 36.3308C92.1306 35.9851 92.7942 34.936 93.2122 34.617C93.427 34.4531 93.8077 34.2438 94.0579 34.1521C94.2916 34.0665 94.5207 34.0161 94.7308 33.9968C94.7899 33.9883 94.8466 33.9829 94.9007 33.9802C94.9231 33.9771 94.9416 33.9727 94.9564 33.9724Z" fill="#84CA70"/>
<path d="M74.7444 31.7019C75.0476 31.399 75.2626 31.5338 75.848 32.3924C76.1551 32.8428 76.447 33.1876 76.7523 33.448C76.9209 33.5879 77.0968 33.7063 77.2796 33.8054C77.7238 34.0341 78.2255 34.128 78.8616 34.1277C79.1077 34.1275 79.3094 34.1119 79.5071 34.0759C79.6744 34.0363 79.8559 33.9857 80.0579 33.9187C80.1713 33.876 80.2932 33.8264 80.428 33.7664C81.3153 33.3717 81.6544 33.4075 81.6546 33.8963C81.6546 34.2433 81.4012 34.4642 80.5452 34.865C80.0562 35.094 79.8232 35.1618 79.2327 35.1804C78.7769 35.2412 78.3241 35.238 77.9124 35.1677C77.501 35.1378 77.2794 35.0683 76.9505 34.906C76.479 34.6732 75.9524 34.2344 75.513 33.7576C75.4133 33.6521 75.3195 33.5436 75.2327 33.4334C74.8322 32.9381 74.556 32.4416 74.556 32.1199C74.556 31.994 74.6408 31.8057 74.7444 31.7019Z" fill="#84CA70"/>
<path d="M61.3128 28.6394C61.5604 28.3918 61.6966 28.4794 62.1927 29.2088C62.6447 29.8732 63.2604 30.4215 63.8255 30.6629C64.3738 30.8967 65.5905 30.8268 66.2122 30.5261C66.4262 30.4226 66.6067 30.3839 66.7444 30.4031C66.7494 30.4033 66.7543 30.4037 66.7591 30.4041C66.7627 30.4047 66.7663 30.4053 66.7698 30.406C66.8342 30.4131 66.8837 30.4364 66.9319 30.4763C67.1356 30.6454 67.1407 30.8538 66.9886 31.0613C66.8068 31.4023 66.2306 31.6805 65.515 31.7967C65.0748 31.8817 64.6142 31.886 64.1653 31.8133C63.313 31.694 62.6225 31.3271 62.0228 30.6765C61.37 29.9685 61.0626 29.2833 61.1839 28.8631C61.1918 28.79 61.213 28.7314 61.2513 28.6931C61.267 28.6774 61.2834 28.6641 61.3001 28.6531C61.3043 28.6486 61.3084 28.6438 61.3128 28.6394Z" fill="#84CA70"/>
<path d="M77.1644 26.3045C77.1905 26.3054 77.2172 26.3059 77.2444 26.3074C77.3294 26.3108 77.4219 26.3125 77.5228 26.3172C78.6058 26.3674 79.4952 26.5824 80.7503 27.116C81.1283 27.265 81.489 27.4283 81.8118 27.6004C81.8237 27.6067 81.8356 27.614 81.848 27.6209C82.3959 27.9069 82.7717 28.197 83.2913 28.7166C83.444 28.8693 83.5721 29.0081 83.68 29.1306C83.929 29.39 84.0974 29.6012 84.098 29.6922C84.098 29.722 84.0925 29.7519 84.0843 29.781C84.1057 29.9448 84.0086 30.052 83.7991 30.1316C83.6356 30.1937 83.4787 30.2445 83.4495 30.2449C83.4211 30.2449 83.0797 29.9522 82.6907 29.5945C81.3993 28.4073 78.8854 27.452 77.053 27.4519C76.3285 27.4519 76.0397 27.406 75.9026 27.2693C75.6395 27.006 75.6756 26.8059 76.0394 26.5174C76.0519 26.5074 76.0645 26.4982 76.0765 26.489C76.0948 26.4747 76.1129 26.4612 76.1312 26.449C76.3375 26.3057 76.5159 26.281 77.1644 26.3045Z" fill="#84CA70"/>
<path d="M41.8987 43.5642C42.0728 43.4442 42.1505 43.4191 42.3734 43.5623C42.4469 43.5917 42.5122 43.6347 42.5599 43.6922C42.5629 43.6958 42.5663 43.6992 42.5696 43.7029C42.6354 43.7523 42.7126 43.8075 42.7991 43.8748C43.4733 44.3987 44.7344 44.9857 45.5862 45.1795C45.6621 45.1941 45.7406 45.2114 45.8226 45.2254C45.8367 45.2278 45.8509 45.2307 45.8655 45.2332C46.239 45.2953 46.6663 45.3499 47.0931 45.3855C47.4152 45.4123 47.6899 45.4366 47.9241 45.4597C49.1895 45.5553 49.5435 45.7389 49.3177 46.1609C49.0522 46.6569 48.1366 46.755 46.3948 46.4734C44.2524 46.1269 43.0241 45.5919 41.9837 44.5515C41.7613 44.3291 41.6472 44.1394 41.639 43.9744C41.6196 43.854 41.6623 43.7508 41.763 43.6502C41.8005 43.6126 41.8479 43.5859 41.8987 43.5642Z" fill="#84CA70"/>
<path d="M53.386 33.2703C53.4524 33.2705 53.8534 33.4803 54.2776 33.7361C55.318 34.3636 55.6311 34.3799 56.3079 33.8435C56.8019 33.4521 57.271 33.4022 57.4427 33.7224C57.6116 34.0381 57.028 34.8014 56.3763 35.117C55.5192 35.5319 54.6231 35.4242 53.7816 34.8093C53.6663 34.7277 53.5512 34.6373 53.4368 34.5369C53.4032 34.5073 53.3719 34.476 53.3421 34.4451C52.9857 34.1158 52.9043 33.9089 53.0208 33.6619C53.0286 33.5825 53.0561 33.5143 53.1058 33.4646C53.1273 33.4432 53.1553 33.4272 53.1878 33.4148C53.2646 33.3292 53.3414 33.2703 53.386 33.2703Z" fill="#84CA70"/>
<path d="M40.5999 31.0828C40.8087 30.8741 41.0205 30.9137 41.2464 31.2029C41.8822 32.0169 42.5264 32.556 43.0208 32.6892C43.6608 32.8615 44.5497 32.7702 45.3646 32.449C45.683 32.3235 46.0705 32.2358 46.2474 32.2459C46.3866 32.2446 46.4752 32.2801 46.5218 32.3533C46.608 32.4894 46.641 32.6187 46.6234 32.742C46.6241 32.7487 46.6272 32.7547 46.6273 32.7605C46.6273 32.8146 46.5984 32.8735 46.5472 32.9363C46.5459 32.9384 46.5456 32.9411 46.5443 32.9431C46.5008 33.1074 46.3798 33.1892 46.0452 33.3543C44.3149 34.2078 42.5462 34.0816 41.3382 33.0183C41.043 32.7584 40.7241 32.3971 40.6302 32.2156C40.5394 32.0399 40.4875 31.8362 40.472 31.6472C40.4437 31.4763 40.458 31.327 40.5198 31.2166C40.5408 31.163 40.566 31.1167 40.5999 31.0828Z" fill="#84CA70"/>
<path d="M25.9114 25.8338C26.1197 25.8191 26.3793 25.891 26.6497 26.0261C27.0145 26.1742 27.3826 26.3969 27.6175 26.6551C28.2055 27.3014 28.5902 28.5599 28.5902 29.8338C28.59 30.5767 28.3439 30.9707 27.9105 30.9207C27.623 30.8874 27.5947 30.8329 27.5081 30.1287C27.3755 29.0491 27.1307 28.0443 26.9163 27.6717C26.8566 27.5937 26.7908 27.5175 26.7171 27.4402C26.56 27.2966 26.339 27.1314 26.1292 27.0144C25.5641 26.6993 25.3511 26.361 25.4905 25.9978C25.5239 25.911 25.613 25.8639 25.7376 25.8465C25.785 25.8313 25.8417 25.8265 25.9114 25.8338Z" fill="#84CA70"/>
<path d="M43.9534 25.8504C44.5932 25.8097 45.2761 25.8311 45.9075 25.907C46.535 25.9482 46.8787 26.0177 47.2708 26.158C48.3755 26.5533 48.8947 27.1841 48.4319 27.5681C48.3935 27.6 48.3485 27.6202 48.2962 27.6355C48.2841 27.6402 48.2716 27.644 48.2581 27.6472C48.2505 27.6488 48.2427 27.6499 48.2347 27.6511C48.2051 27.6562 48.1726 27.6594 48.1351 27.658C48.1264 27.658 48.1177 27.6583 48.1087 27.658C48.1045 27.6577 48.1003 27.6564 48.096 27.656C47.8608 27.6452 47.5065 27.5459 46.9349 27.3386C46.5869 27.2125 46.2102 27.1231 45.8128 27.0672C45.5265 27.0482 45.1686 27.0447 44.6497 27.0447C44.3402 27.0447 44.0904 27.0472 43.8782 27.0515C43.0221 27.1461 42.1285 27.3674 41.2503 27.7117C40.3028 28.0832 39.8845 28.0582 39.8812 27.5994C39.879 27.5728 39.8782 27.5443 39.8782 27.5144C39.8783 27.4674 39.888 27.4213 39.9036 27.3748C39.9055 27.3682 39.9073 27.3618 39.9095 27.3552C39.9152 27.3276 39.9206 27.2988 39.928 27.2693C40.0147 26.9241 40.7202 26.5715 42.2493 26.1092C42.8931 25.9144 43.1936 25.8526 43.9534 25.8504Z" fill="#84CA70"/>
<path fill-rule="evenodd" clip-rule="evenodd" d="M75.138 0.163838C79.5573 -0.376568 84.8048 0.444247 88.5784 2.26638C92.5106 4.16507 95.0377 6.85732 95.8343 9.99392L96.0403 10.8074C96.0586 10.8227 96.0804 10.8385 96.1048 10.8552L96.1321 10.867L96.6448 11.0476C97.4333 11.3254 99.0165 12.2953 99.7786 12.9675C102.155 15.0644 103.302 18.4471 102.976 22.406C102.682 25.9811 101.717 28.8753 99.722 32.1736L99.2093 33.0213C99.1088 33.2051 99.049 33.338 99.0169 33.4549L99.056 34.3093C99.0969 34.6896 99.1101 35.0756 99.097 35.4636C99.1016 36.114 99.046 36.4998 98.8909 37.1463C98.6075 38.3282 98.0584 39.5793 97.3929 40.5593C97.143 40.9273 96.7638 41.3576 96.3528 41.7654C96.2958 41.8235 96.2374 41.8797 96.179 41.9353C96.1418 41.9709 96.1042 42.0059 96.0667 42.0408C96.0587 42.0481 96.0513 42.056 96.0433 42.0633C95.5718 42.4996 95.0884 42.8795 94.722 43.0769C94.4192 43.24 94.0078 43.3952 93.5482 43.531C93.5033 43.5454 93.4595 43.5627 93.4144 43.5759C93.3613 43.5915 93.2837 43.6094 93.1888 43.6297C92.6814 43.7603 92.1364 43.8655 91.6204 43.9207L90.847 44.0027L90.8489 44.3123L90.8997 44.8933C91.034 46.4413 91.207 47.255 91.5853 47.8347C91.6687 47.9441 91.7688 48.0576 91.8929 48.1863C92.042 48.341 92.1578 48.4528 92.2581 48.5349C92.3074 48.5708 92.3538 48.6015 92.4007 48.6267C92.5177 48.6674 92.6516 48.7063 92.7894 48.7361C92.8652 48.7433 92.9497 48.7478 93.0472 48.7478C93.6668 48.7479 95.3067 49.2043 97.2952 49.9304C98.7609 50.4657 100.366 51.2223 101.886 52.0672C101.957 52.1064 102.028 52.1456 102.098 52.1853C102.208 52.2474 102.317 52.3099 102.426 52.3728C102.481 52.4043 102.535 52.4358 102.589 52.4675C104.064 53.33 105.419 54.2601 106.432 55.1336C106.677 55.3448 106.919 55.5366 107.117 55.6834C107.288 55.8014 107.443 55.8967 107.576 55.9636C107.684 55.9711 108.067 56.1332 108.44 56.3318C109.15 56.7101 109.881 57.434 110.319 58.1912C110.473 58.4575 110.662 58.6286 110.996 58.7898C111.012 58.7961 111.027 58.8032 111.043 58.8093C111.134 58.844 111.223 58.8865 111.313 58.9324C112.048 59.2818 112.725 59.9799 113.058 60.7429C113.209 61.0899 113.511 61.7404 113.728 62.1883C113.957 62.6613 114.103 63.142 114.169 63.6297C114.214 63.8836 114.225 64.0949 114.208 64.3426C114.203 64.554 114.185 64.7672 114.15 64.9812C114.063 65.5111 114.092 65.6458 114.484 66.4939C115.834 69.4148 117.15 74.9104 117.631 79.6433C117.69 80.2195 117.728 81.247 117.751 82.489C117.757 82.7315 117.761 82.9837 117.765 83.2478C117.766 83.3481 117.768 83.4494 117.769 83.5515C117.772 83.9091 117.774 84.2886 117.775 84.6951C117.782 87.2337 117.735 90.0474 117.629 91.7449C117.553 92.9662 117.461 94.2577 117.364 95.5701C117.347 95.8016 117.329 96.0341 117.312 96.2674C116.814 102.846 116.14 109.733 115.851 110.83C115.794 111.045 115.712 111.233 115.619 111.381C115.501 111.616 115.37 111.702 115.217 111.702C115.182 111.702 115.145 111.734 115.109 111.783C115.071 111.842 115.042 111.927 115.031 112.022L114.993 112.343H114.929L114.916 112.4H68.7318L68.3919 112.408L68.3724 112.4H56.4398L56.4124 112.319C56.3418 112.317 56.3064 112.316 56.3069 112.313C56.318 112.264 56.2591 111.989 56.1761 111.702C56.0622 111.308 56.0447 110.648 56.1048 109.033C56.1488 107.853 56.1945 106.839 56.2064 106.778C56.2183 106.718 55.8719 106.474 55.4368 106.235C54.8786 105.929 54.5936 105.824 54.0433 105.761C53.7147 105.749 53.3487 105.704 52.9525 105.629C52.9401 105.626 52.9278 105.623 52.9153 105.621C52.8327 105.605 52.7485 105.589 52.6634 105.57C50.8428 105.187 48.4287 104.192 46.3314 102.928C45.9518 102.699 45.6093 102.511 45.5687 102.51C45.53 102.509 45.4623 103.125 45.4183 103.877C45.3744 104.629 45.2625 105.925 45.1693 106.757C45.076 107.589 44.9504 109.108 44.8909 110.132C44.8315 111.156 44.7469 112.085 44.7034 112.197C44.6885 112.235 44.633 112.264 44.4017 112.289C44.2639 112.356 44.1308 112.364 44.014 112.317C42.6102 112.389 38.3552 112.399 25.4173 112.399C24.7523 112.399 24.0638 112.4 23.3519 112.4H2.17999L2.14874 112.263C2.06787 112.244 2.04704 112.222 2.04523 112.197C2.03757 112.085 2.03619 111.958 2.0423 111.914C2.04847 111.87 1.974 111.608 1.87628 111.332C0.250753 106.74 -0.597027 86.003 0.482729 77.2429C1.12318 72.0473 2.48888 67.206 4.38996 63.3924C6.16661 59.8284 6.85585 58.7154 8.34308 57.0095C10.3446 54.7137 12.0246 53.1811 14.2181 51.6472C15.6015 50.6799 15.569 50.8531 14.5062 50.0857C14.2402 49.8937 13.7634 49.4178 13.4466 49.0281C12.8799 48.3309 12.8562 48.3163 11.9652 48.1248C9.39215 47.5719 7.06363 45.7385 5.84992 43.3093C5.36805 42.3449 5.15315 41.6543 5.05206 40.6599C4.96676 40.0354 4.95362 39.4026 5.01691 38.7722C5.18019 36.781 6.054 35.0419 7.91144 33.0183C8.22535 32.6614 8.56455 32.3161 8.98371 31.9207C9.02974 31.8762 9.07643 31.8317 9.12335 31.7869C9.70396 31.2128 10.3875 30.563 11.2025 29.8054C13.1282 27.9283 14.2249 26.6513 15.0853 25.1756C15.4152 24.5934 15.7311 23.9559 16.055 23.2302C16.2738 22.7237 16.4942 22.1745 16.7269 21.5633C19.2048 15.0519 20.8514 12.2671 24.22 8.88552C27.896 5.19534 32.8406 2.47423 37.9427 1.33474C39.9212 0.892894 40.6804 0.79228 42.3519 0.823018C43.3978 0.814483 44.436 0.889282 45.4544 1.0447C48.2333 1.43575 50.631 2.36834 52.972 3.94802C54.1392 4.73566 56.0804 6.52137 57.0296 7.68044L57.8314 8.65896L58.8235 7.68337C59.8988 6.62687 61.8639 5.11498 63.4056 4.15798C64.5047 3.47577 66.8993 2.2676 68.0638 1.80739C69.0553 1.41556 70.3496 1.04707 71.7562 0.740987C72.6867 0.52633 73.6394 0.35825 74.6194 0.234151C74.7925 0.210411 74.9655 0.184931 75.138 0.163838ZM31.3275 64.3426C28.9957 62.6884 27.3572 61.7944 26.9798 61.9636C26.9301 62.0023 26.8971 62.0647 26.8782 62.1463C26.8293 62.5378 27.1047 63.4863 27.5589 64.4168C28.2491 65.8307 28.927 66.4834 30.8021 67.5408C32.1267 68.2879 32.7825 68.7539 32.9485 69.116C32.9539 69.1273 32.9589 69.1382 32.9632 69.1492C32.9695 69.1656 32.9736 69.182 32.9778 69.198C32.9805 69.209 32.9832 69.2195 32.9847 69.2302C33.0102 69.3729 32.9561 69.501 32.8294 69.6277C32.5727 69.8842 32.4375 69.8595 31.7845 69.4402C30.6412 68.7065 26.6271 66.5189 24.6429 65.5476C20.6307 63.5838 17.6123 62.4239 15.6155 62.0789C15.4129 62.0439 15.2161 62.0151 15.0257 61.992C14.7377 61.9713 14.4456 61.9606 14.1409 61.9597C13.7233 61.9586 13.397 61.9631 13.1351 61.9832C12.574 62.0742 12.1749 62.2668 11.9857 62.5554C11.7956 62.8457 11.7972 62.8662 12.0345 63.0584C12.1706 63.1686 12.9274 63.4869 13.7161 63.7654C14.7036 64.114 16.2561 64.8261 17.8343 65.6179C17.8996 65.6507 17.9651 65.6835 18.0306 65.7166C20.3205 66.8737 22.6169 68.1747 23.2728 68.7605C23.5616 69.0186 23.6166 69.1045 23.554 69.325C23.5514 69.3705 23.5428 69.4168 23.5277 69.4646C23.4864 69.5947 23.4092 69.6812 23.306 69.7273C23.0931 69.8575 22.7622 69.7593 22.2669 69.4314C21.1727 68.7069 19.1616 67.5885 17.0843 66.5486C15.9832 65.9973 15.1048 65.5807 14.3675 65.2703C13.7304 65.0144 13.1505 64.8115 12.6321 64.6638C12.0463 64.5154 11.5364 64.4584 11.0023 64.4607C9.98435 64.4651 9.77633 64.5896 9.66925 65.2586C9.63416 65.4781 9.62417 65.6581 9.66632 65.825C9.69982 65.9388 9.75414 66.0473 9.8382 66.156C10.1656 66.5611 10.9651 66.9976 12.7269 67.8816C14.6601 68.8516 17.6972 70.6427 19.3392 71.7801C19.915 72.1788 20.637 72.6708 20.9437 72.8738C21.1871 73.035 21.3626 73.2024 21.472 73.364C21.4807 73.3762 21.4886 73.3888 21.4964 73.4011C21.5755 73.5303 21.6118 73.6549 21.5999 73.7752C21.5862 74.0254 21.4035 74.2322 21.0902 74.2322L21.0872 74.2312L21.0814 74.2322L21.0804 74.2312L21.0784 74.2322C21.073 74.2322 21.0635 74.2265 21.0491 74.2205C21.0319 74.2151 21.0107 74.2091 20.9866 74.199C20.7386 74.1517 20.4175 73.986 20.0071 73.699C17.8703 72.204 14.4535 70.1204 12.7454 69.2703C10.7265 68.2656 9.81546 68.0793 9.22003 68.5476C8.81493 68.8663 8.87539 69.2613 9.46613 70.1511C10.0647 71.0527 10.9304 71.8389 11.9329 72.3924C12.8025 72.8724 15.2153 74.6254 16.8196 75.9431C17.2898 76.3292 17.9182 76.7646 18.2161 76.9099C19.2776 77.4278 19.6856 77.8461 19.5062 78.2537C19.5035 78.2623 19.4995 78.2705 19.4964 78.2791C19.4696 78.4407 19.3647 78.5688 19.1888 78.6238C19.0509 78.7269 18.9497 78.7272 18.765 78.657C18.2569 78.4638 16.8482 77.4849 15.2972 76.2468C14.2241 75.3904 11.7336 73.7032 10.9534 73.282C10.8265 73.2348 10.7471 73.2325 10.7044 73.2752C10.7124 73.4405 10.8075 73.8249 10.9778 74.3679C11.4684 75.9318 13.9399 78.442 18.5521 82.0593C21.9317 84.71 24.2045 85.8945 28.4163 87.2019C29.1422 87.4273 29.7839 87.6373 30.3655 87.8347C30.8861 87.9989 31.3108 88.1377 31.4993 88.2078C31.6953 88.2807 31.9451 88.3887 32.2288 88.5174C33.5948 89.0703 34.6608 89.641 35.9759 90.4666C36.4603 90.7707 36.8855 91.0241 37.0071 91.0877C37.0406 91.0799 37.0578 91.0551 37.0657 91.0144C37.0698 90.9934 37.0762 90.9712 37.0814 90.948C37.0828 90.9261 37.0853 90.9029 37.0853 90.8787C37.0853 90.4515 37.8865 88.4374 38.8109 86.5418C38.9877 86.179 39.1856 85.804 39.3929 85.4236C39.5293 85.1679 39.6644 84.9232 39.7962 84.6951C39.9054 84.5061 40.0204 84.3109 40.1409 84.114C40.9812 82.718 41.8888 81.4204 42.5462 80.7176L43.1585 80.0633L43.1693 80.0506C43.1863 80.0142 43.1917 79.9866 43.1888 79.9676L43.0599 79.8845L42.6331 79.6482C42.4617 79.5531 42.2014 79.3594 41.9232 79.1277C41.4311 78.758 41.008 78.3456 40.6214 77.8367C39.9158 76.9765 39.4326 75.9935 38.7366 74.114C37.9488 71.9866 37.6612 71.3609 37.0189 70.367C35.3768 67.8264 33.6271 65.974 31.3275 64.3426ZM107.871 57.3142C107.37 57.0607 106.52 57.0955 105.102 57.4275C104.462 57.5774 103.258 57.8109 102.426 57.9461C99.0415 58.4961 97.1456 58.9361 95.7776 59.5125C95.2183 59.7732 94.6193 60.0999 94.0667 60.4441C91.9761 61.8157 89.3414 64.3242 85.3978 68.6697C84.4859 69.6744 83.1128 71.0933 82.347 71.823L80.9886 73.116C81.054 73.188 81.2155 73.3362 81.4339 73.5271L81.6243 73.6775C83.6871 75.3027 85.5701 77.2622 87.3304 79.617L88.4417 81.1043L89.0335 80.4871C89.8887 79.5948 91.0726 78.858 93.3997 77.7693C96.2772 76.423 98.0034 75.4374 99.973 74.0183C102.537 72.1707 105.612 70.2752 106.044 70.2752C106.085 70.275 106.295 70.1919 106.606 70.0603C106.738 70.0019 106.875 69.9452 107.016 69.8845C108.125 69.3996 109.854 68.5972 110.445 68.2752C111.532 67.6826 112.416 66.9236 112.727 66.3142C112.92 65.9351 112.927 65.8572 112.782 65.7361C112.379 65.4026 110.795 65.649 108.884 66.3426C107.801 66.7356 104.253 68.3173 103.826 68.5965C103.072 69.0909 102.367 69.014 102.368 68.4383C102.37 68.0181 102.688 67.8138 105.03 66.7254C108.36 65.1779 109.96 64.6075 111.386 64.4607C111.898 64.4081 112.474 64.3723 112.666 64.3816L113.015 64.3992L113.012 63.7293C113.011 63.5538 113.005 63.4201 112.992 63.3103C112.947 63.1483 112.886 63.0005 112.806 62.8709C112.76 62.8151 112.706 62.7552 112.638 62.6873C112.324 62.3729 112.179 62.3137 111.585 62.2732C111.371 62.2692 111.114 62.2739 110.804 62.2869C110.725 62.2902 110.646 62.2941 110.567 62.2996C109.075 62.4599 106.904 63.1183 103.736 64.3611C102.928 64.6778 102.356 64.8885 101.952 65.0056C101.687 65.0975 101.506 65.155 101.458 65.1551C101.385 65.1551 101.316 65.1365 101.252 65.1062C101.249 65.105 101.246 65.1037 101.243 65.1023C101.131 65.0772 101.067 65.0169 101.031 64.9177C100.951 64.8099 100.934 64.6995 100.981 64.5828C100.986 64.5544 100.994 64.5264 101.004 64.4988C101.031 64.3726 101.093 64.2667 101.192 64.1775C101.244 64.1305 101.464 64.0246 101.791 63.8816C102.006 63.7797 102.27 63.6692 102.592 63.5466C102.94 63.4069 103.328 63.2552 103.729 63.1052C107.686 61.6253 109.677 61.0829 111.155 61.0828H111.801C111.855 61.0728 111.889 61.061 111.902 61.0457L111.712 60.7224C111.447 60.2678 110.992 59.9392 110.493 59.8406C110.448 59.8315 110.397 59.8159 110.344 59.7986C110.235 59.7859 110.088 59.7225 109.963 59.6365C109.893 59.5989 109.828 59.5598 109.776 59.5213C108.892 58.8731 105.384 59.5584 101.41 61.155C101.053 61.2987 100.719 61.4186 100.434 61.5164C100.017 61.6742 99.763 61.7464 99.5901 61.7547C99.5838 61.7555 99.5775 61.755 99.5716 61.7556C99.5619 61.7558 99.5525 61.7568 99.5433 61.7566C99.5225 61.7579 99.505 61.7612 99.4905 61.7595C99.2773 61.735 99.2021 61.699 99.178 61.531C99.1763 61.5268 99.1738 61.5227 99.1722 61.5183C99.127 61.4587 99.1146 61.3892 99.1302 61.3093C99.1272 61.2502 99.1386 61.1932 99.1693 61.1345C99.1736 61.123 99.1768 61.1109 99.1819 61.0994C99.2048 60.9856 99.2639 60.9055 99.4163 60.8035C99.4613 60.7661 99.5119 60.7314 99.5667 60.699C99.6645 60.6412 99.8125 60.568 99.9974 60.4832C100.007 60.4784 100.016 60.4734 100.026 60.4685C101.916 59.5024 105.97 58.2674 107.793 58.1023C108.265 58.0595 108.652 57.9874 108.652 57.9422C108.651 57.8173 108.288 57.525 107.871 57.3142ZM89.2181 43.7C89.0929 43.6495 88.9609 43.7993 88.7523 44.2312C87.8076 46.1864 85.0246 49.2943 82.8109 50.866C82.7056 50.9407 82.5914 51.017 82.471 51.0965C82.2937 51.2195 82.1184 51.337 81.9446 51.4461C81.4749 51.7409 80.833 52.0915 80.1605 52.4324C79.0874 52.9925 77.9963 53.4939 77.261 53.7381C75.3678 54.367 72.7977 54.7956 70.9046 54.7976H70.7659C70.745 54.7977 70.7242 54.7986 70.7034 54.7986H70.5706L70.0179 54.8386V55.1707L70.0677 55.7586C70.3373 58.9619 70.6438 60.2194 71.3568 61.0525C71.9977 61.8013 72.7796 62.1307 73.9095 62.1277C75.9696 62.1222 78.3948 61.2779 81.1839 59.5955C82.0295 59.0854 83.44 58.073 83.9232 57.6297C84.0511 57.5122 84.4699 57.1548 84.8538 56.8357C86.5357 55.4379 87.2272 54.7668 88.5579 53.242C89.3368 52.3497 90.3237 51.143 90.7503 50.5613L91.4778 49.5672C91.4857 49.5307 91.4742 49.4843 91.4427 49.4275L91.2015 49.2039C90.308 48.3778 89.9458 47.3257 89.8362 45.2361C89.7784 44.1313 89.73 43.868 89.5784 43.824C89.4761 43.7943 89.314 43.7387 89.2181 43.7ZM57.4085 40.9734C56.2833 43.6892 54.3225 46.7277 52.3021 49.0701C52.2262 49.1586 52.1485 49.2445 52.0726 49.3308C51.9654 49.452 51.8605 49.5733 51.7532 49.6902C51.7244 49.7218 51.6951 49.7528 51.6663 49.784C51.5404 49.9198 51.414 50.052 51.2884 50.1814C51.094 50.3819 50.9017 50.5743 50.7103 50.7556C50.0823 51.354 49.469 51.8581 48.8929 52.2341C48.171 52.7054 47.3834 53.0756 46.5677 53.3445C46.3564 53.421 46.1507 53.4908 45.9515 53.5457C45.6787 53.6208 45.3681 53.6784 45.0355 53.7215C43.6104 53.9573 42.1647 53.886 40.8724 53.4744C40.6242 53.3954 40.3966 53.326 40.2278 53.2771C40.1853 53.2653 40.1463 53.2551 40.1116 53.2459C40.042 53.2392 39.9855 53.2361 39.9398 53.242C39.9308 53.2505 39.921 53.2595 39.9124 53.2713C39.8588 53.4438 39.7137 53.9232 39.5482 54.4763C39.3425 55.1631 39.1454 55.8013 39.1097 55.8943C39.0389 56.0805 39.6825 56.4077 42.4964 57.614C46.8743 59.4909 51.1361 61.038 52.7464 61.3347L53.2933 61.4343L53.4944 61.4617L54.8802 60.116C56.4493 58.5923 57.6331 57.6755 59.2874 56.7009C60.7635 55.8314 63.1735 54.6847 64.4896 54.2263C65.0654 54.0259 65.6112 53.8352 65.7025 53.8025C65.8018 53.7669 65.5005 53.5295 64.9466 53.2078C63.2596 52.2278 62.014 51.0475 60.8577 49.3299C60.5544 48.8792 60.2526 48.332 59.9632 47.7263C59.9589 47.7178 59.9538 47.7095 59.9495 47.7009C59.8516 47.5052 59.7523 47.2817 59.6507 47.0388C59.0599 45.6655 58.5553 44.0823 58.2728 42.6384C58.1351 41.9344 57.9853 41.0275 57.9398 40.6238L57.9105 40.3689C57.9092 40.3605 57.9077 40.3524 57.9066 40.3445C57.8692 40.1812 57.8372 40.0667 57.8099 40.0008L57.4085 40.9734ZM26.7093 36.9324C26.6725 36.9667 26.6435 37.0187 26.6194 37.0916C26.5962 37.1879 26.5772 37.332 26.553 37.5418C26.4995 38.0068 26.3356 38.8318 26.1439 39.6765C26.1237 39.7655 26.1043 39.8542 26.0833 39.9422C25.8741 40.8391 25.6418 41.7183 25.4788 42.1726C25.0785 43.2884 24.2531 44.9084 23.5687 45.9226C22.8527 46.9838 21.3019 48.8549 21.0618 48.947C20.9622 48.9857 21.4965 49.1845 22.263 49.3943C25.2738 50.2185 28.2773 51.7146 31.3987 53.9451C32.7406 54.904 35.0061 56.7355 36.096 57.742L36.8851 58.4705C36.9791 58.3116 37.1906 57.7958 37.4437 57.1345C37.6508 56.56 37.9321 55.7542 38.1927 54.9783L38.8948 52.8845C38.8969 52.8223 38.8822 52.7727 38.8343 52.7185L37.8743 52.2127C34.2338 50.2896 31.1124 47.3353 29.2513 44.1912C29.1078 43.9569 28.9697 43.7209 28.8382 43.4832C28.7027 43.2383 28.5693 42.9487 28.4398 42.6297C28.1661 42.0188 27.9413 41.4064 27.7747 40.7976C27.66 40.3781 27.504 39.4914 27.4075 38.74C27.3943 38.6453 27.382 38.5522 27.3714 38.4607C27.2824 37.7006 27.1947 37.0755 27.1741 37.0574C27.1526 37.0387 27.0219 36.9887 26.8831 36.9461C26.8044 36.9219 26.7504 36.9126 26.7093 36.9324ZM74.0374 15.366C73.8779 15.3146 73.5097 15.4331 72.9271 15.7244C71.2334 16.5709 69.4502 17.0486 66.9339 17.3308C65.4016 17.5027 63.8198 17.7651 62.6155 18.0467L61.555 18.2947L61.4798 19.4119C61.4382 20.0261 61.2971 21.0256 61.1663 21.6336C60.4117 25.1424 60.2265 26.1648 59.4036 31.3504C58.9348 34.305 58.9053 34.6246 58.9202 36.7039C58.9457 40.2576 59.2702 42.6044 60.0618 44.9705C61.5158 49.3156 64.3055 52.2103 68.097 53.3074C68.9144 53.5438 69.2693 53.5762 71.0062 53.5691C71.9304 53.5653 72.7801 53.5152 73.5853 53.4177C74.0613 53.3545 74.5348 53.2771 74.9954 53.1863C76.4087 52.8889 77.7314 52.4068 79.1526 51.6912C82.505 50.0033 84.1248 48.6872 86.3997 45.8074C86.6216 45.5265 86.8317 45.2364 87.0276 44.9461C87.3473 44.4592 87.6264 43.9786 87.8489 43.5154C87.9054 43.3978 87.9633 43.284 88.0179 43.1756C88.054 43.0916 88.0896 43.0101 88.1204 42.9295C88.4374 42.0999 88.4886 42.0764 89.2191 42.4343C90.6529 43.1369 92.9049 42.8393 94.5638 41.8191C94.9298 41.5853 95.2723 41.3155 95.5892 41.0105C96.2366 40.337 96.9954 39.2042 97.3245 38.3894C98.0299 36.6428 98.1241 34.8461 97.7005 33.5633C97.472 32.9156 97.1174 32.3896 96.6497 32.0701C96.5335 31.9947 96.4103 31.931 96.2796 31.8816C95.1357 31.4496 93.3271 32.0718 91.6819 33.4627C91.2741 33.8074 90.9633 34.0032 90.7269 34.0613C90.6969 34.0759 90.6751 34.0856 90.6614 34.0857C90.6439 34.0857 90.6265 34.0826 90.6097 34.0789C90.5667 34.0808 90.527 34.0775 90.4896 34.0681C90.4852 34.0671 90.4811 34.0654 90.4769 34.0642C90.4037 34.0431 90.3404 34.0013 90.2864 33.9363C90.2184 33.8544 90.1087 33.2574 90.0423 32.6101C89.871 30.9401 89.4831 29.2372 88.7943 27.116C88.5818 26.5013 88.3988 25.9282 88.2425 25.3875C88.0146 24.6399 87.8223 23.9568 87.7503 23.6121C87.671 23.232 87.6178 22.7207 87.5853 22.1453C87.5097 21.3591 87.5088 20.6081 87.5726 19.8396C87.6008 19.1442 87.655 18.471 87.7405 17.9099L87.8821 16.9783C87.8794 16.8116 87.8564 16.6911 87.806 16.5935L87.6702 16.4871C87.5292 16.3763 87.027 16.1224 86.554 15.9236C85.366 15.4245 84.5555 15.3885 81.4798 15.698C78.7258 15.9751 77.5811 15.9613 75.4339 15.6248C74.7971 15.5249 74.1685 15.4085 74.0374 15.366ZM53.0843 16.1101C49.4665 19.7551 44.7586 22.5571 39.0394 24.4705C38.6023 24.6167 38.0383 24.7681 37.4173 24.9138C36.9506 25.0309 36.4864 25.1292 35.9935 25.2156C34.5392 25.4974 33.0546 25.7068 32.2591 25.7068C32.2532 25.7068 32.2473 25.7068 32.2415 25.7068C32.112 25.7242 32.013 25.7396 31.9534 25.7498C31.8638 25.7963 31.8273 25.8909 31.7855 26.0847C31.7407 26.2927 31.6051 26.6592 31.4837 26.8992C31.3062 27.2498 31.1519 27.3915 30.9827 27.3142C30.951 27.3183 30.9209 27.3172 30.8929 27.3064C30.7951 27.2688 30.6789 27.09 30.6341 26.909C30.6324 26.902 30.6291 26.8954 30.6273 26.8884C30.5752 26.7949 30.52 26.6868 30.4622 26.5633C29.9942 25.5631 28.8864 24.4743 27.7679 23.9148C26.2562 23.1586 25.3714 23.2352 24.4007 24.2058C23.6131 24.9934 23.1729 25.8622 22.9905 27.0613C22.9593 27.4628 22.9491 27.9459 22.9485 28.5574C22.9479 29.1857 22.9569 29.6608 22.9769 30.0427C23.1926 31.8073 23.8094 33.2265 24.8079 34.2332C25.6224 35.0541 26.4777 35.4813 27.5443 35.5984C27.9139 35.639 28.1958 35.701 28.3909 35.784C28.4735 35.8087 28.5322 35.8309 28.5569 35.8513C28.5878 35.8769 28.6113 35.908 28.6321 35.9402C28.7312 36.0457 28.7441 36.1697 28.6732 36.3181C28.6465 36.397 28.6016 36.4717 28.5325 36.5291C28.5264 36.5342 28.5208 36.5403 28.515 36.5466C28.5135 36.5483 28.5125 36.5509 28.511 36.5525C28.5038 36.5606 28.4972 36.569 28.4905 36.5769C28.4194 36.6849 28.3823 36.8979 28.3734 37.1834C28.3837 37.3884 28.4101 37.671 28.4525 38.074C28.8112 41.4917 30.055 44.0279 32.7044 46.7459C34.7481 48.8425 36.7741 50.3178 39.2064 51.4802C41.3173 52.4891 41.9025 52.6443 43.6019 52.6453C44.832 52.6459 45.1825 52.6031 45.8714 52.3679C47.7648 51.7215 49.0149 50.8844 50.7064 49.1326C52.8573 46.9046 54.9844 43.7048 56.1546 40.9363C57.037 38.8485 57.2364 37.9585 58.2093 31.7722C58.6767 28.7997 58.7457 29.1257 57.5189 28.5008C57.2928 28.3856 57.061 28.301 56.8294 28.24C56.3422 28.133 55.8389 28.1169 55.3812 28.2009C54.6965 28.3516 54.0736 28.745 53.6165 29.3572C52.2697 31.1615 51.9901 32.8723 52.388 36.8777C52.5241 38.2472 52.5782 39.1503 52.5257 39.8025C52.5096 40.1719 52.455 40.4252 52.3519 40.6482C52.2284 40.9685 52.0433 41.2192 51.7845 41.4773C51.2059 42.0544 50.5452 42.3433 49.7034 42.3884C49.2752 42.4236 48.8284 42.3819 48.3782 42.2625C47.7442 42.1119 47.1953 41.8536 47.015 41.5789C46.8923 41.3917 46.8843 41.3204 47.0091 41.1502C47.0307 41.0733 47.074 41.0172 47.14 40.9793L47.2845 40.8015L48.2835 41.0662C48.9853 41.2515 49.5716 41.2944 50.0491 41.199C50.4574 41.0695 50.8664 40.8263 51.1243 40.5418C51.2011 40.4397 51.2695 40.3262 51.3304 40.2019C51.5381 39.7778 51.5445 39.6572 51.4124 38.4578C51.0909 35.5384 50.9897 33.8038 51.1536 32.4724C51.174 32.2443 51.2064 32.0567 51.2532 31.8621C51.3921 31.184 51.6134 30.5912 51.929 29.9509C52.3857 29.0246 53.2049 28.029 53.8421 27.6267C54.067 27.4848 54.3545 27.3565 54.6614 27.2517C54.8955 27.152 55.0783 27.0996 55.3138 27.074C55.5792 27.0193 55.8375 26.9871 56.0638 26.9871C56.3078 26.9871 56.6133 27.0322 56.9271 27.1062C57.1209 27.1389 57.2912 27.1895 57.4866 27.2683C57.8428 27.3887 58.1678 27.534 58.3763 27.6824C58.5297 27.7916 58.6724 27.8739 58.7405 27.8972C58.7669 27.8748 58.7914 27.826 58.8187 27.7381C58.8772 27.4465 58.9919 26.7983 59.1126 26.0603L59.3792 24.4217C59.3802 24.331 59.3795 24.2425 59.3753 24.1551C59.3743 24.1436 59.3725 24.1323 59.3714 24.1209L59.1126 23.0926C58.5824 20.9873 57.7541 19.3766 56.2083 17.4451C55.8241 16.9651 55.199 16.231 54.8196 15.8142L54.1292 15.0564L53.0843 16.1101Z" fill="#84CA70"/>
</svg>
